<?xml version="1.0" encoding="UTF-8" standalone="no"?>
<svg
   xmlns:dc="http://purl.org/dc/elements/1.1/"
   xmlns:cc="http://creativecommons.org/ns#"
   xmlns:rdf="http://www.w3.org/1999/02/22-rdf-syntax-ns#"
   xmlns:svg="http://www.w3.org/2000/svg"
   xmlns="http://www.w3.org/2000/svg"
   xmlns:sodipodi="http://sodipodi.sourceforge.net/DTD/sodipodi-0.dtd"
   xmlns:inkscape="http://www.inkscape.org/namespaces/inkscape"
   viewBox="0 0 89.999992 89.500069"
   version="1.1"
   x="0px"
   y="0px"
   id="svg977"
   sodipodi:docname="fireballc.svg"
   width="89.999992"
   height="89.500069"
   style="enable-background:new"
   enable-background="new">
  <metadata
     id="metadata983">
    <rdf:RDF>
      <cc:Work
         rdf:about="">
        <dc:format>image/svg+xml</dc:format>
        <dc:type
           rdf:resource="http://purl.org/dc/dcmitype/StillImage" />
        <dc:title></dc:title>
        <dc:title></dc:title>
      </cc:Work>
    </rdf:RDF>
  </metadata>
  <defs
     id="defs981">
    <filter
       inkscape:collect="always"
       style="color-interpolation-filters:sRGB"
       id="filter1182"
       x="-0.0012000005"
       width="1.0024"
       y="-0.0011999995"
       height="1.0024"
       inkscape:label="Clean Edges">
      <feGaussianBlur
         inkscape:collect="always"
         stdDeviation="0.045000017"
         id="feGaussianBlur1184" />
      <feBlend
         inkscape:collect="always"
         mode="overlay"
         in2="BackgroundImage"
         id="feBlend1186"
         result="fbSourceGraphic" />
      <feColorMatrix
         result="fbSourceGraphicAlpha"
         in="fbSourceGraphic"
         values="0 0 0 -1 0 0 0 0 -1 0 0 0 0 -1 0 0 0 0 1 0"
         id="feColorMatrix1284" />
      <feGaussianBlur
         id="feGaussianBlur1286"
         stdDeviation="0.87"
         result="blur"
         in="fbSourceGraphic" />
      <feComposite
         in2="blur"
         id="feComposite1288"
         in="fbSourceGraphic"
         operator="in"
         result="composite1" />
      <feComposite
         in2="composite1"
         id="feComposite1290"
         in="composite1"
         operator="in"
         result="fbSourceGraphic" />
      <feColorMatrix
         result="fbSourceGraphicAlpha"
         in="fbSourceGraphic"
         values="0 0 0 -1 0 0 0 0 -1 0 0 0 0 -1 0 0 0 0 1 0"
         id="feColorMatrix1292" />
      <feGaussianBlur
         id="feGaussianBlur1294"
         stdDeviation="0.87"
         result="blur"
         in="fbSourceGraphic" />
      <feComposite
         in2="blur"
         id="feComposite1296"
         in="fbSourceGraphic"
         operator="in"
         result="composite1" />
      <feComposite
         in2="composite1"
         id="feComposite1298"
         in="composite1"
         operator="in"
         result="fbSourceGraphic" />
      <feColorMatrix
         result="fbSourceGraphicAlpha"
         in="fbSourceGraphic"
         values="0 0 0 -1 0 0 0 0 -1 0 0 0 0 -1 0 0 0 0 1 0"
         id="feColorMatrix1300" />
      <feGaussianBlur
         id="feGaussianBlur1302"
         stdDeviation="1.17"
         result="blur"
         in="fbSourceGraphic" />
      <feComposite
         in2="blur"
         id="feComposite1304"
         in="fbSourceGraphic"
         operator="in"
         result="composite1" />
      <feComposite
         in2="composite1"
         id="feComposite1306"
         in="composite1"
         operator="in"
         result="composite2" />
    </filter>
    <filter
       inkscape:collect="always"
       style="color-interpolation-filters:sRGB;"
       id="filter1902"
       x="-0.2"
       width="1.4"
       y="-0.2"
       height="1.4"
       inkscape:label="Torn Edges"
       inkscape:menu="Distort"
       inkscape:menu-tooltip="Displace the outside of shapes and pictures without altering their content">
      <feGaussianBlur
         inkscape:collect="always"
         stdDeviation="0.90000031"
         id="feGaussianBlur1904" />
      <feBlend
         inkscape:collect="always"
         mode="overlay"
         in2="BackgroundImage"
         id="feBlend1906"
         result="fbSourceGraphic" />
      <feColorMatrix
         result="fbSourceGraphicAlpha"
         in="fbSourceGraphic"
         values="0 0 0 -1 0 0 0 0 -1 0 0 0 0 -1 0 0 0 0 1 0"
         id="feColorMatrix1908" />
      <feTurbulence
         id="feTurbulence1910"
         baseFrequency="0.05"
         numOctaves="5"
         type="fractalNoise"
         result="result91"
         in="fbSourceGraphic" />
      <feDisplacementMap
         in2="result91"
         id="feDisplacementMap1912"
         scale="25"
         result="result5"
         xChannelSelector="R"
         in="fbSourceGraphic" />
      <feComposite
         in2="result5"
         id="feComposite1914"
         in="fbSourceGraphic"
         operator="atop" />
    </filter>
  </defs>
  <sodipodi:namedview
     pagecolor="#ffffff"
     bordercolor="#666666"
     borderopacity="1"
     objecttolerance="10"
     gridtolerance="10"
     guidetolerance="10"
     inkscape:pageopacity="0"
     inkscape:pageshadow="2"
     inkscape:window-width="1920"
     inkscape:window-height="956"
     id="namedview979"
     showgrid="false"
     inkscape:zoom="6.088"
     inkscape:cx="-4.4014411"
     inkscape:cy="22.996778"
     inkscape:window-x="0"
     inkscape:window-y="31"
     inkscape:window-maximized="1"
     inkscape:current-layer="svg977"
     fit-margin-top="-0.5"
     fit-margin-left="0"
     fit-margin-right="0"
     fit-margin-bottom="0" />
  <path
     inkscape:connector-curvature="0"
     id="path969"
     d="m 46.156246,-0.500001 a 8.099702,11.308937 14.354794 0 0 -7.901201,6.127509 8.099702,11.308937 14.354794 0 0 -1.582491,6.55313 11.509223,7.620614 84.825172 0 0 -3.366144,-6.57709 11.508427,4.8668377 84.319239 0 1 -3.759089,10.60197 11.508427,4.8668377 84.319239 0 1 -5.823155,-9.46505 11.509223,7.620614 84.825172 0 0 -1.866893,9.18399 11.509223,7.620614 84.825172 0 0 0.837862,3.77376 11.421202,9.2086323 71.43089 0 0 -3.230251,-2.65818 11.419925,5.8812613 72.479346 0 1 -2.616195,11.2207 11.419925,5.8812613 72.479346 0 1 -8.559896,-7.89384 11.421202,9.2086323 71.43089 0 0 -0.616716,9.39643 11.421202,9.2086323 71.43089 0 0 4.687523,6.72363 11.308937,8.099702 14.354794 0 0 -7.685376,0.53613 7.0981629,5.0838562 14.354794 0 1 4.951328,0.96312 7.0981629,5.0838562 14.354794 0 1 3.111034,7.30436 7.0981629,5.0838562 14.354794 0 1 -9.385754,1.1643 A 7.0981629,5.0838562 14.354794 0 1 0,43.345068 a 11.308937,8.099702 14.354794 0 0 6.12754,7.9012 11.308937,8.099702 14.354794 0 0 6.551109,1.5825 7.620614,11.509223 84.825172 0 0 -6.575764,3.3648 4.8668377,11.508427 84.319239 0 1 10.602614,3.7598 4.8668377,11.508427 84.319239 0 1 -9.465039,5.8239 7.620614,11.509223 84.825172 0 0 9.183979,1.8668 7.620614,11.509223 84.825172 0 0 3.7744,-0.8398 9.2086323,11.421202 71.43089 0 0 -2.658786,3.2316 5.8812613,11.419925 72.479346 0 1 11.220012,2.6161 5.8812613,11.419925 72.479346 0 1 -7.893835,8.560598 9.2086323,11.421202 71.43089 0 0 9.395745,0.6168 9.2086323,11.421202 71.43089 0 0 6.724274,-4.686898 8.099702,11.308937 14.354794 0 0 0.536852,7.684697 5.0838562,7.0981629 14.354794 0 1 0.96175,-4.952699 5.0838562,7.0981629 14.354794 0 1 7.3044,-3.109698 5.0838562,7.0981629 14.354794 0 1 1.165572,9.384497 5.0838562,7.0981629 14.354794 0 1 -3.110386,3.3508 8.099702,11.308937 14.354794 0 0 7.901167,-6.126899 8.099702,11.308937 14.354794 0 0 1.582491,-6.549098 11.509223,7.620614 84.825172 0 0 3.365495,6.573097 11.508427,4.8668377 84.319239 0 1 3.759089,-10.601297 11.508427,4.8668377 84.319239 0 1 5.824485,9.464398 11.509223,7.620614 84.825172 0 0 1.866211,-9.183298 11.509223,7.620614 84.825172 0 0 -0.839874,-3.7764 11.421202,9.2086323 71.43089 0 0 3.231616,2.6601 11.419925,5.8812613 72.479346 0 1 2.616194,-11.2207 11.419925,5.8812613 72.479346 0 1 8.561192,7.8945 11.421202,9.2086323 71.43089 0 0 0.616103,-9.3957 11.421202,9.2086323 71.43089 0 0 -4.68824,-6.7243 11.308937,8.099702 14.354794 0 0 7.68606,-0.5369 7.0981629,5.0838562 14.354794 0 1 -4.951978,-0.9617 7.0981629,5.0838562 14.354794 0 1 -3.109704,-7.3044 7.0981629,5.0838562 14.354794 0 1 9.384422,-1.1649 7.0981629,5.0838562 14.354794 0 1 3.35083,3.1104 11.308937,8.099702 14.354794 0 0 -6.126854,-7.90122 11.308937,8.099702 14.354794 0 0 -6.553803,-1.58249 7.620614,11.509223 84.825172 0 0 6.577776,-3.36549 4.8668377,11.508427 84.319239 0 1 -10.601284,-3.76042 4.8668377,11.508427 84.319239 0 1 9.463709,-5.82316 7.620614,11.509223 84.825172 0 0 -9.183296,-1.86689 7.620614,11.509223 84.825172 0 0 -3.774435,0.83919 9.2086323,11.421202 71.43089 0 0 2.65882,-3.23093 5.8812613,11.419925 72.479346 0 1 -11.220694,-2.61552 5.8812613,11.419925 72.479346 0 1 7.894517,-8.56123 9.2086323,11.421202 71.43089 0 0 -9.395779,-0.61676 9.2086323,11.421202 71.43089 0 0 -6.724273,4.68691 8.099702,11.308937 14.354794 0 0 -0.5375,-7.68404 5.0838562,7.0981629 14.354794 0 1 -0.961751,4.95129 5.0838562,7.0981629 14.354794 0 1 -7.304399,3.11107 5.0838562,7.0981629 14.354794 0 1 -1.16489,-9.38579 5.0838562,7.0981629 14.354794 0 1 3.110386,-3.351479 z m -1.84691,18.084869 a 6.7640785,4.8445773 75.645206 0 1 4.725511,3.66453 6.7640785,4.8445773 75.645206 0 1 0.946439,3.91763 4.5580263,6.8838732 5.174828 0 1 2.012743,-3.93161 2.9109431,6.8833968 5.680761 0 0 2.248552,6.34064 2.9109431,6.8833968 5.680761 0 0 3.483348,-5.66063 4.5580263,6.8838732 5.174828 0 1 1.116262,5.49278 4.5580263,6.8838732 5.174828 0 1 -0.502171,2.25855 5.5078485,6.8312257 18.56911 0 1 1.933493,-1.59116 3.517688,6.8304622 17.520654 0 0 1.564519,6.71163 3.517688,6.8304622 17.520654 0 0 5.12047,-4.72221 5.5078485,6.8312257 18.56911 0 1 0.368324,5.62002 5.5078485,6.8312257 18.56911 0 1 -2.804022,4.02218 4.8445773,6.7640785 75.645206 0 1 4.597667,0.32102 3.0407457,4.2455387 75.645206 0 0 -2.962524,0.57481 3.0407457,4.2455387 75.645206 0 0 -1.860244,4.36922 3.0407457,4.2455387 75.645206 0 0 5.613331,0.6967 3.0407457,4.2455387 75.645206 0 0 2.004764,-1.8603 4.8445773,6.7640785 75.645206 0 1 -3.665176,4.7255 4.8445773,6.7640785 75.645206 0 1 -3.919636,0.9465 6.8838732,4.5580263 5.174828 0 1 3.9343,2.0134 6.8833968,2.9109431 5.680761 0 0 -6.341353,2.2492 6.8833968,2.9109431 5.680761 0 0 5.660663,3.4827 6.8838732,4.5580263 5.174828 0 1 -5.492136,1.117 6.8838732,4.5580263 5.174828 0 1 -2.257861,-0.5022 6.8312257,5.5078485 18.56911 0 1 1.589822,1.9321 6.8304622,3.517688 17.520654 0 0 -6.710973,1.5645 6.8304622,3.517688 17.520654 0 0 4.722203,5.1205 6.8312257,5.5078485 18.56911 0 1 -5.620662,0.369 6.8312257,5.5078485 18.56911 0 1 -4.021531,-2.8033 6.7640785,4.8445773 75.645206 0 1 -0.321027,4.5963 4.2455387,3.0407457 75.645206 0 0 -0.575454,-2.9619 4.2455387,3.0407457 75.645206 0 0 -4.36919,-1.8602 4.2455387,3.0407457 75.645206 0 0 -0.696684,5.614 4.2455387,3.0407457 75.645206 0 0 1.860892,2.0041 6.7640785,4.8445773 75.645206 0 1 -4.72616,-3.6645 6.7640785,4.8445773 75.645206 0 1 -0.946439,-3.9203 4.5580263,6.8838732 5.174828 0 1 -2.013425,3.9342 2.9109431,6.8833968 5.680761 0 0 -2.248552,-6.3413 2.9109431,6.8833968 5.680761 0 0 -3.4827,5.6613 4.5580263,6.8838732 5.174828 0 1 -1.116945,-5.4934 4.5580263,6.8838732 5.174828 0 1 0.501524,-2.2572 5.5078485,6.8312257 18.56911 0 1 -1.932163,1.5905 3.517688,6.8304622 17.520654 0 0 -1.565167,-6.7117 3.517688,6.8304622 17.520654 0 0 -5.119822,4.7216 5.5078485,6.8312257 18.56911 0 1 -0.368324,-5.6201 5.5078485,6.8312257 18.56911 0 1 2.80334,-4.0215 4.8445773,6.7640785 75.645206 0 1 -4.596303,-0.321 3.0407457,4.2455387 75.645206 0 0 2.961195,-0.5755 3.0407457,4.2455387 75.645206 0 0 1.860925,-4.3692 3.0407457,4.2455387 75.645206 0 0 -5.614013,-0.6966 3.0407457,4.2455387 75.645206 0 0 -2.004116,1.8602 4.8445773,6.7640785 75.645206 0 1 3.664528,-4.7262 4.8445773,6.7640785 75.645206 0 1 3.918954,-0.94576 6.8838732,4.5580263 5.174828 0 1 -3.933618,-2.01342 6.8833968,2.9109431 5.680761 0 0 6.342001,-2.24855 6.8833968,2.9109431 5.680761 0 0 -5.661311,-3.48335 6.8838732,4.5580263 5.174828 0 1 5.493466,-1.11695 6.8838732,4.5580263 5.174828 0 1 2.257179,0.50286 6.8312257,5.5078485 18.56911 0 1 -1.59047,-1.93285 6.8304622,3.517688 17.520654 0 0 6.710974,-1.56452 6.8304622,3.517688 17.520654 0 0 -4.721522,-5.12047 6.8312257,5.5078485 18.56911 0 1 5.619981,-0.36897 6.8312257,5.5078485 18.56911 0 1 4.02153,2.80334 6.7640785,4.8445773 75.645206 0 1 0.321027,-4.5963 4.2455387,3.0407457 75.645206 0 0 0.575454,2.96184 4.2455387,3.0407457 75.645206 0 0 4.369191,1.86024 4.2455387,3.0407457 75.645206 0 0 0.696683,-5.61336 4.2455387,3.0407457 75.645206 0 0 -1.859561,-2.00408 z"
     style="color:#000000;clip-rule:nonzero;display:inline;overflow:visible;visibility:visible;opacity:0.97000002;isolation:auto;mix-blend-mode:normal;color-interpolation:sRGB;color-interpolation-filters:linearRGB;solid-color:#000000;solid-opacity:1;fill:#ffd5d5;fill-opacity:1;fill-rule:nonzero;stroke:#ff0000;stroke-width:0;stroke-linecap:square;stroke-linejoin:miter;stroke-miterlimit:4;stroke-dasharray:none;stroke-dashoffset:0;stroke-opacity:1;filter:url(#filter1182);color-rendering:auto;image-rendering:auto;shape-rendering:auto;text-rendering:auto;enable-background:accumulate" />
  <path
     inkscape:connector-curvature="0"
     id="path969-5"
     d="m 46.156246,-0.5 a 8.099702,11.308937 14.354794 0 0 -7.901201,6.127509 8.099702,11.308937 14.354794 0 0 -1.582491,6.55313 11.509223,7.620614 84.825172 0 0 -3.366144,-6.57709 11.508427,4.8668377 84.319239 0 1 -3.759089,10.60197 11.508427,4.8668377 84.319239 0 1 -5.823155,-9.46505 11.509223,7.620614 84.825172 0 0 -1.866893,9.18399 11.509223,7.620614 84.825172 0 0 0.837862,3.773759 11.421202,9.2086323 71.43089 0 0 -3.230251,-2.658179 11.419925,5.8812613 72.479346 0 1 -2.616195,11.220699 11.419925,5.8812613 72.479346 0 1 -8.559896,-7.89384 11.421202,9.2086323 71.43089 0 0 -0.616716,9.39643 11.421202,9.2086323 71.43089 0 0 4.687523,6.72363 11.308937,8.099702 14.354794 0 0 -7.685376,0.53613 7.0981629,5.0838562 14.354794 0 1 4.951328,0.96312 7.0981629,5.0838562 14.354794 0 1 3.111034,7.304361 7.0981629,5.0838562 14.354794 0 1 -9.385754,1.1643 A 7.0981629,5.0838562 14.354794 0 1 0,43.345069 a 11.308937,8.099702 14.354794 0 0 6.12754,7.9012 11.308937,8.099702 14.354794 0 0 6.551109,1.5825 7.620614,11.509223 84.825172 0 0 -6.575764,3.3648 4.8668377,11.508427 84.319239 0 1 10.602614,3.7598 4.8668377,11.508427 84.319239 0 1 -9.465039,5.8239 7.620614,11.509223 84.825172 0 0 9.183979,1.8668 7.620614,11.509223 84.825172 0 0 3.7744,-0.8398 9.2086323,11.421202 71.43089 0 0 -2.658786,3.2316 5.8812613,11.419925 72.479346 0 1 11.220012,2.6161 5.8812613,11.419925 72.479346 0 1 -7.893835,8.560597 9.2086323,11.421202 71.43089 0 0 9.395745,0.6168 9.2086323,11.421202 71.43089 0 0 6.724274,-4.686897 8.099702,11.308937 14.354794 0 0 0.536852,7.684696 5.0838562,7.0981629 14.354794 0 1 0.96175,-4.952699 5.0838562,7.0981629 14.354794 0 1 7.3044,-3.109697 5.0838562,7.0981629 14.354794 0 1 1.165572,9.384496 5.0838562,7.0981629 14.354794 0 1 -3.110386,3.3508 8.099702,11.308937 14.354794 0 0 7.901167,-6.126899 8.099702,11.308937 14.354794 0 0 1.582491,-6.549097 11.509223,7.620614 84.825172 0 0 3.365495,6.573096 11.508427,4.8668377 84.319239 0 1 3.759089,-10.601296 11.508427,4.8668377 84.319239 0 1 5.824485,9.464397 11.509223,7.620614 84.825172 0 0 1.866211,-9.183297 11.509223,7.620614 84.825172 0 0 -0.839874,-3.7764 11.421202,9.2086323 71.43089 0 0 3.231616,2.6601 11.419925,5.8812613 72.479346 0 1 2.616194,-11.2207 11.419925,5.8812613 72.479346 0 1 8.561192,7.8945 11.421202,9.2086323 71.43089 0 0 0.616103,-9.3957 11.421202,9.2086323 71.43089 0 0 -4.68824,-6.7243 11.308937,8.099702 14.354794 0 0 7.68605,-0.5369 7.0981629,5.0838562 14.354794 0 1 -4.951968,-0.9617 7.0981629,5.0838562 14.354794 0 1 -3.109704,-7.3044 7.0981629,5.0838562 14.354794 0 1 9.384422,-1.1649 7.0981629,5.0838562 14.354794 0 1 3.35083,3.1104 11.308937,8.099702 14.354794 0 0 -6.126854,-7.901221 11.308937,8.099702 14.354794 0 0 -6.553803,-1.58249 7.620614,11.509223 84.825172 0 0 6.577776,-3.36549 4.8668377,11.508427 84.319239 0 1 -10.601284,-3.76042 4.8668377,11.508427 84.319239 0 1 9.463709,-5.82316 7.620614,11.509223 84.825172 0 0 -9.183296,-1.86689 7.620614,11.509223 84.825172 0 0 -3.774435,0.83919 9.2086323,11.421202 71.43089 0 0 2.65882,-3.230929 5.8812613,11.419925 72.479346 0 1 -11.220694,-2.61552 5.8812613,11.419925 72.479346 0 1 7.894517,-8.56123 9.2086323,11.421202 71.43089 0 0 -9.395779,-0.61676 9.2086323,11.421202 71.43089 0 0 -6.724273,4.68691 8.099702,11.308937 14.354794 0 0 -0.5375,-7.68404 5.0838562,7.0981629 14.354794 0 1 -0.961751,4.95129 5.0838562,7.0981629 14.354794 0 1 -7.304399,3.11107 5.0838562,7.0981629 14.354794 0 1 -1.16489,-9.38579 5.0838562,7.0981629 14.354794 0 1 3.110386,-3.351479 z m -1.84691,18.084869 a 6.7640785,4.8445773 75.645206 0 1 4.725511,3.664529 6.7640785,4.8445773 75.645206 0 1 0.946439,3.91763 4.5580263,6.8838732 5.174828 0 1 2.012743,-3.93161 2.9109431,6.8833968 5.680761 0 0 2.248552,6.34064 2.9109431,6.8833968 5.680761 0 0 3.483348,-5.66063 4.5580263,6.8838732 5.174828 0 1 1.116262,5.49278 4.5580263,6.8838732 5.174828 0 1 -0.502171,2.25855 5.5078485,6.8312257 18.56911 0 1 1.933493,-1.59116 3.517688,6.8304622 17.520654 0 0 1.564519,6.71163 3.517688,6.8304622 17.520654 0 0 5.12047,-4.72221 5.5078485,6.8312257 18.56911 0 1 0.368324,5.62002 5.5078485,6.8312257 18.56911 0 1 -2.804022,4.022181 4.8445773,6.7640785 75.645206 0 1 4.597667,0.32102 3.0407457,4.2455387 75.645206 0 0 -2.962524,0.57481 3.0407457,4.2455387 75.645206 0 0 -1.860244,4.36922 3.0407457,4.2455387 75.645206 0 0 5.613331,0.6967 3.0407457,4.2455387 75.645206 0 0 2.004764,-1.8603 4.8445773,6.7640785 75.645206 0 1 -3.665176,4.7255 4.8445773,6.7640785 75.645206 0 1 -3.919636,0.9465 6.8838732,4.5580263 5.174828 0 1 3.9343,2.0134 6.8833968,2.9109431 5.680761 0 0 -6.341353,2.2492 6.8833968,2.9109431 5.680761 0 0 5.660663,3.4827 6.8838732,4.5580263 5.174828 0 1 -5.492136,1.117 6.8838732,4.5580263 5.174828 0 1 -2.257861,-0.5022 6.8312257,5.5078485 18.56911 0 1 1.589822,1.9321 6.8304622,3.517688 17.520654 0 0 -6.710973,1.5645 6.8304622,3.517688 17.520654 0 0 4.722203,5.1205 6.8312257,5.5078485 18.56911 0 1 -5.620662,0.369 6.8312257,5.5078485 18.56911 0 1 -4.021531,-2.8033 6.7640785,4.8445773 75.645206 0 1 -0.321027,4.5963 4.2455387,3.0407457 75.645206 0 0 -0.575454,-2.9619 4.2455387,3.0407457 75.645206 0 0 -4.36919,-1.8602 4.2455387,3.0407457 75.645206 0 0 -0.696684,5.614 4.2455387,3.0407457 75.645206 0 0 1.860892,2.0041 6.7640785,4.8445773 75.645206 0 1 -4.72616,-3.6645 6.7640785,4.8445773 75.645206 0 1 -0.946439,-3.9203 4.5580263,6.8838732 5.174828 0 1 -2.013425,3.9342 2.9109431,6.8833968 5.680761 0 0 -2.248552,-6.3413 2.9109431,6.8833968 5.680761 0 0 -3.4827,5.6613 4.5580263,6.8838732 5.174828 0 1 -1.116945,-5.4934 4.5580263,6.8838732 5.174828 0 1 0.501524,-2.2572 5.5078485,6.8312257 18.56911 0 1 -1.932163,1.5905 3.517688,6.8304622 17.520654 0 0 -1.565167,-6.7117 3.517688,6.8304622 17.520654 0 0 -5.119822,4.7216 5.5078485,6.8312257 18.56911 0 1 -0.368324,-5.6201 5.5078485,6.8312257 18.56911 0 1 2.80334,-4.0215 4.8445773,6.7640785 75.645206 0 1 -4.596303,-0.321 3.0407457,4.2455387 75.645206 0 0 2.961195,-0.5755 3.0407457,4.2455387 75.645206 0 0 1.860925,-4.3692 3.0407457,4.2455387 75.645206 0 0 -5.614013,-0.6966 3.0407457,4.2455387 75.645206 0 0 -2.004116,1.8602 4.8445773,6.7640785 75.645206 0 1 3.664528,-4.7262 4.8445773,6.7640785 75.645206 0 1 3.918954,-0.94576 6.8838732,4.5580263 5.174828 0 1 -3.933618,-2.013421 6.8833968,2.9109431 5.680761 0 0 6.342001,-2.24855 6.8833968,2.9109431 5.680761 0 0 -5.661311,-3.48335 6.8838732,4.5580263 5.174828 0 1 5.493466,-1.11695 6.8838732,4.5580263 5.174828 0 1 2.257179,0.50286 6.8312257,5.5078485 18.56911 0 1 -1.59047,-1.93285 6.8304622,3.517688 17.520654 0 0 6.710974,-1.56452 6.8304622,3.517688 17.520654 0 0 -4.721522,-5.12047 6.8312257,5.5078485 18.56911 0 1 5.619981,-0.36897 6.8312257,5.5078485 18.56911 0 1 4.02153,2.80334 6.7640785,4.8445773 75.645206 0 1 0.321027,-4.5963 4.2455387,3.0407457 75.645206 0 0 0.575454,2.96184 4.2455387,3.0407457 75.645206 0 0 4.369191,1.86024 4.2455387,3.0407457 75.645206 0 0 0.696683,-5.61336 4.2455387,3.0407457 75.645206 0 0 -1.859561,-2.004079 z"
     style="color:#000000;clip-rule:nonzero;display:inline;overflow:visible;visibility:visible;opacity:1;isolation:auto;mix-blend-mode:normal;color-interpolation:sRGB;color-interpolation-filters:linearRGB;solid-color:#000000;solid-opacity:1;fill:#ffff00;fill-opacity:1;fill-rule:nonzero;stroke:#ff0000;stroke-width:1.13385827;stroke-linecap:square;stroke-linejoin:miter;stroke-miterlimit:4;stroke-dasharray:none;stroke-dashoffset:0;stroke-opacity:1;filter:url(#filter1902);color-rendering:auto;image-rendering:auto;shape-rendering:auto;text-rendering:auto;enable-background:accumulate" />
</svg>
