<svg xmlns="http://www.w3.org/2000/svg" xmlns:xlink="http://www.w3.org/1999/xlink" xmlns:sketch="http://www.bohemiancoding.com/sketch/ns" viewBox="0 0 100 125" version="1.1" x="0px" y="0px"><title>ICON Tie-Fighter </title><desc>Created with Sketch.</desc><g stroke="none" stroke-width="1" fill="none" fill-rule="evenodd" sketch:type="MSPage"><g sketch:type="MSArtboardGroup" fill="#000000"><path d="M39.194518,40.3744257 L39.1882381,40.4246646 L38.7483029,40.7948271 C38.9507882,39.1749447 39.3562191,35.9314974 39.3562191,35.9314974 C39.4097387,35.5033401 39.8040081,35.15625 40.2335598,35.15625 L41.0164402,35.15625 C41.4474624,35.15625 41.8184826,35.5019723 41.8453708,35.9321826 L41.9793718,38.0761984 L41.5895075,38.1005649 L41.4555065,35.9565491 C41.4415483,35.7332187 41.2421971,35.546875 41.0164402,35.546875 L40.2335598,35.546875 C40.0004854,35.546875 39.7728473,35.747791 39.7438276,35.9799485 C39.7213207,36.1600037 39.7213207,36.1600037 39.6312931,36.8802245 C39.5187586,37.7805006 39.5187586,37.7805006 39.3837172,38.8608318 C39.2770702,39.7140077 39.2545506,39.8941645 39.194518,40.3744257 Z" sketch:type="MSShapeGroup"/><path sketch:type="MSShapeGroup" d="M39.6484375,37.5 L41.6015625,37.5 L41.796875,37.5 L41.796875,37.109375 L41.6015625,37.109375 L39.6484375,37.109375 L39.453125,37.109375 L39.453125,37.5 L39.6484375,37.5 L39.6484375,37.5 Z"/><path d="M59.2480933,40.3744257 L59.2418135,40.4246646 L58.8018782,40.7948271 C59.0043635,39.1749447 59.4097944,35.9314974 59.4097944,35.9314974 C59.4633141,35.5033401 59.8575834,35.15625 60.2871352,35.15625 L61.0700156,35.15625 C61.5010378,35.15625 61.872058,35.5019723 61.8989462,35.9321826 L62.0329471,38.0761984 L61.6430829,38.1005649 L61.5090819,35.9565491 C61.4951237,35.7332187 61.2957725,35.546875 61.0700156,35.546875 L60.2871352,35.546875 C60.0540608,35.546875 59.8264227,35.747791 59.797403,35.9799485 C59.7748961,36.1600037 59.7748961,36.1600037 59.6848685,36.8802245 C59.572334,37.7805006 59.572334,37.7805006 59.4372926,38.8608318 C59.3306456,39.7140077 59.308126,39.8941645 59.2480933,40.3744257 Z" sketch:type="MSShapeGroup" transform="translate(60.417413, 37.975539) scale(-1, 1) translate(-60.417413, -37.975539) "/><path sketch:type="MSShapeGroup" transform="translate(60.156250, 37.304688) scale(-1, 1) translate(-60.156250, -37.304688) " d="M59.1796875,37.5 L61.1328125,37.5 L61.328125,37.5 L61.328125,37.109375 L61.1328125,37.109375 L59.1796875,37.109375 L58.984375,37.109375 L58.984375,37.5 L59.1796875,37.5 L59.1796875,37.5 Z"/><path d="M43.0833463,37.0199516 C38.2354612,39.6748799 35.15625,44.7619747 35.15625,50.390625 C35.15625,58.804338 41.976912,65.625 50.390625,65.625 C58.804338,65.625 65.625,58.804338 65.625,50.390625 C65.625,44.9251788 62.7226004,39.963569 58.0959316,37.2457796 L57.7002311,37.9194061 C62.0904269,40.498287 64.84375,45.2050526 64.84375,50.390625 C64.84375,58.3728655 58.3728655,64.84375 50.390625,64.84375 C42.4083845,64.84375 35.9375,58.3728655 35.9375,50.390625 C35.9375,45.0502644 38.8586253,40.2243397 43.4586067,37.7051751 L43.0833463,37.0199516 L43.0833463,37.0199516 Z" sketch:type="MSShapeGroup"/><path d="M45.1171875,58.203125 L45.1171875,55.46875 L44.921875,55.6640625 L55.859375,55.6640625 L55.6640625,55.46875 L55.6640625,58.203125 L56.0546875,58.203125 L56.0546875,55.46875 L56.0546875,55.2734375 L55.859375,55.2734375 L44.921875,55.2734375 L44.7265625,55.2734375 L44.7265625,55.46875 L44.7265625,58.203125 L45.1171875,58.203125 L45.1171875,58.203125 Z" sketch:type="MSShapeGroup"/><path sketch:type="MSShapeGroup" d="M42.3828125,62.890625 L58.4031999,62.890625 L58.5985124,62.890625 L58.5985124,62.5 L58.4031999,62.5 L42.3828125,62.5 L42.1875,62.5 L42.1875,62.890625 L42.3828125,62.890625 L42.3828125,62.890625 Z"/><path d="M42.578125,36.328125 C42.578125,36.328125 44.921875,34.765625 50.390625,34.765625 C55.859375,34.765625 58.203125,35.9375 58.203125,35.9375 L58.203125,37.890625 L42.578125,37.890625 L42.578125,36.328125 Z M43.0114845,36.9781643 L43.359375,36.328125 L43.359375,37.890625 L42.578125,37.109375 L58.203125,37.109375 L57.421875,37.890625 L57.421875,35.9375 L57.8537394,36.6362712 C57.8079442,36.6133737 57.6867069,36.5614148 57.4868403,36.4894628 C57.1345081,36.3626233 56.6972935,36.2340307 56.1719848,36.1128056 C54.6433989,35.760055 52.7247785,35.546875 50.390625,35.546875 C48.0753623,35.546875 46.1752733,35.8283697 44.6633483,36.2935774 C44.1452178,36.4530021 43.7144912,36.6219145 43.3678563,36.7882993 C43.1723016,36.8821655 43.0545692,36.9494412 43.0114845,36.9781643 Z" sketch:type="MSShapeGroup"/><path d="M24.3277378,53.2620036 C23.7592852,57.6836905 23.7592852,57.6836905 23.0771422,62.9897148 L21.8265465,72.7174261 C21.5849542,74.5966431 21.5849542,74.5966431 21.4144185,75.9231491 C21.2865166,76.9180287 21.2865166,76.9180287 21.258094,77.139113 L21.3151553,76.9804989 L14.0289615,88.5299789 L14.743799,88.6692887 L7.58153972,48.8271215 L7.58104049,48.9680695 L14.7432998,10.6852368 L14.0289615,10.8218249 L21.3151553,22.3713049 L21.2580348,22.212228 L24.446677,47.2514108 L25.2216682,47.1527187 L22.033026,22.1135359 C22.0258235,22.056977 22.006327,22.0026805 21.9759056,21.9544589 L14.6897119,10.4049789 C14.5002202,10.1046121 14.0406837,10.1924798 13.9753736,10.541567 L6.81311435,48.8243997 C6.80440283,48.8709635 6.80423367,48.9187235 6.81261512,48.9653478 L13.9748744,88.8075151 C14.0379493,89.1583878 14.4994983,89.2483359 14.6897119,88.9468249 L21.9759056,77.3973449 C22.006243,77.3492565 22.0257168,77.2951249 22.0329668,77.2387308 C22.0613894,77.0176464 22.0613894,77.0176464 22.1892913,76.0227669 C22.359827,74.6962608 22.359827,74.6962608 22.6014194,72.8170438 C23.1698719,68.3953569 23.1698719,68.3953569 23.852015,63.0893326 C24.534158,57.7833082 24.534158,57.7833082 25.1026106,53.3616213 L24.3277378,53.2620036 L24.3277378,53.2620036 Z" sketch:type="MSShapeGroup"/><path d="M23.5207739,53.3599143 C22.9591935,57.6304783 22.9591935,57.6304783 22.2852969,62.7551551 C21.6114004,67.8798319 21.6114004,67.8798319 21.04982,72.150396 C20.8111483,73.9653857 20.8111483,73.9653857 20.6426742,75.2465549 L20.4882395,76.42096 L20.5130433,76.3513813 L15.1907022,84.9524237 L15.5129664,85.0126149 L8.73858858,48.7796327 L8.73870751,48.843601 L15.1224603,13.9828332 L14.8011871,14.0454373 L20.5141533,23.0371047 L20.4882575,22.9658917 L23.6818107,47.1057699 L24.0303365,47.0596621 L20.8367833,22.9197839 L20.8108875,22.8485709 L15.0979214,13.8569035 C15.012188,13.7219674 14.8054447,13.7622539 14.7766482,13.9195076 L8.39289534,48.7802754 L8.39301427,48.8442437 L15.1673921,85.0772259 C15.1969022,85.2350618 15.4051634,85.2739599 15.4896564,85.1374171 L20.8119975,76.5363747 L20.8368012,76.466796 C20.8648803,76.2532678 20.8648803,76.2532678 20.9912359,75.2923909 C21.15971,74.0112217 21.15971,74.0112217 21.3983817,72.1962319 C21.9599621,67.9256679 21.9599621,67.9256679 22.6338586,62.8009911 C23.3077551,57.6763143 23.3077551,57.6763143 23.8693356,53.4057502 L23.5207739,53.3599143 L23.5207739,53.3599143 Z" sketch:type="MSShapeGroup"/><path d="M17.3237194,43.4399803 C17.166235,43.262527 16.9894803,43.1640625 16.796875,43.1640625 C15.7503495,43.1640625 15.0390625,46.364854 15.0390625,50.390625 C15.0390625,54.416396 15.7503495,57.6171875 16.796875,57.6171875 C17.0071509,57.6171875 17.1975526,57.5005105 17.365903,57.2913108 L17.0615803,57.0464116 C16.9606392,57.1718456 16.8713483,57.2265625 16.796875,57.2265625 C16.1175106,57.2265625 15.4296875,54.1313583 15.4296875,50.390625 C15.4296875,46.6498917 16.1175106,43.5546875 16.796875,43.5546875 C16.8635966,43.5546875 16.9420184,43.5983738 17.0315569,43.6992657 L17.3237194,43.4399803 L17.3237194,43.4399803 Z" sketch:type="MSShapeGroup"/><path d="M19.0265206,46.1736812 C18.7157766,44.288819 18.2301253,43.1640625 17.578125,43.1640625 C16.5315995,43.1640625 15.8203125,46.364854 15.8203125,50.390625 C15.8203125,54.416396 16.5315995,57.6171875 17.578125,57.6171875 C18.2378161,57.6171875 18.7285198,56.4632728 19.0380362,54.5368151 L18.6523573,54.4748496 C18.377808,56.1836691 17.9343163,57.2265625 17.578125,57.2265625 C16.8987606,57.2265625 16.2109375,54.1313583 16.2109375,50.390625 C16.2109375,46.6498917 16.8987606,43.5546875 17.578125,43.5546875 C17.9284005,43.5546875 18.3658886,44.5678993 18.6410983,46.2372231 L19.0265206,46.1736812 L19.0265206,46.1736812 Z" sketch:type="MSShapeGroup"/><path d="M35.15625,53.325783 L35.15625,54.6875 L35.6120936,54.3023579 L26.3848976,52.7398579 L26.3178689,52.7285075 L26.2509465,52.7404695 L17.5093925,54.3029695 L17.96875,54.6875 L17.96875,46.09375 L17.5093925,46.4782805 L26.2509465,48.0407805 L26.3178689,48.0527425 L26.3848976,48.0413921 L35.6120936,46.4788921 L35.15625,46.09375 L35.15625,47.65625 L35.9375,47.65625 L35.9375,46.09375 L35.9375,45.631417 L35.4816564,45.7086079 L26.2544605,47.2711079 L26.3884116,47.2717195 L17.6468575,45.7092195 L17.1875,45.6271121 L17.1875,46.09375 L17.1875,54.6875 L17.1875,55.1541379 L17.6468575,55.0720305 L26.3884116,53.5095305 L26.2544605,53.5101421 L35.4816564,55.0726421 L35.9375,55.149833 L35.9375,54.6875 L35.9375,53.325783 L35.15625,53.325783 L35.15625,53.325783 Z" sketch:type="MSShapeGroup"/><path d="M33.984375,51.953125 L34.375,51.953125 L34.375,53.515625 L33.984375,53.125 L35.546875,53.125 L35.15625,53.515625 L35.15625,47.265625 L35.546875,47.65625 L33.984375,47.65625 L34.375,47.265625 L34.375,48.4375 L33.984375,48.4375 L33.984375,47.265625 L35.546875,47.265625 L35.546875,53.515625 L33.984375,53.515625 L33.984375,51.953125 Z" sketch:type="MSShapeGroup"/><path d="M17.578125,48.828125 L17.578125,48.828125 L17.96875,48.4375 L17.96875,52.34375 L17.578125,51.953125 L35.15625,51.953125 L34.765625,52.34375 L34.765625,48.4375 L35.15625,48.828125 L17.578125,48.828125 Z M17.578125,48.4375 L35.15625,48.4375 L35.15625,52.34375 L17.578125,52.34375 L17.578125,48.4375 L17.578125,48.4375 Z" sketch:type="MSShapeGroup"/><path d="M25.390625,48.828125 L25.390625,48.828125 L25.78125,48.4375 L25.78125,52.34375 L25.390625,51.953125 L26.953125,51.953125 L26.5625,52.34375 L26.5625,48.4375 L26.953125,48.828125 L25.390625,48.828125 Z M25.390625,48.4375 L26.953125,48.4375 L26.953125,52.34375 L25.390625,52.34375 L25.390625,48.4375 L25.390625,48.4375 Z" sketch:type="MSShapeGroup"/><path d="M14.0625,10.15625 L12.5,10.15625 L12.1739936,10.15625 L12.1156758,10.4769979 L5.08442582,49.1488729 L5.07190781,49.2177219 L5.08406892,49.2866349 L12.1153189,89.1303849 L12.1722731,89.453125 L12.5,89.453125 L14.0625,89.453125 L14.0625,88.671875 L12.5,88.671875 L12.8846811,88.9946151 L5.85343108,49.1508651 L5.85307418,49.2886271 L12.8843242,10.6167521 L12.5,10.9375 L14.0625,10.9375 L14.0625,10.15625 L14.0625,10.15625 Z" sketch:type="MSShapeGroup"/><path d="M8.56688505,49.0215811 C8.61604123,49.0284073 8.70870454,49.0411926 8.83934102,49.0590859 C9.05701226,49.0889004 9.30158609,49.1221203 9.56752944,49.1578947 C10.3273767,49.2601082 11.1062725,49.3623228 11.8599806,49.4577333 C12.0500577,49.4817948 12.2364887,49.5051601 12.4188353,49.5277619 C13.3725481,49.645974 14.1883941,49.740126 14.8243157,49.8037182 L15.0186589,49.8231525 L15.0575275,49.4344661 L14.8631843,49.4150318 C14.2308663,49.3518 13.417804,49.2579692 12.4668854,49.1401034 C12.2848826,49.1175443 12.0987865,49.0942209 11.9090376,49.0702009 C11.1564356,48.9749305 10.378516,48.872844 9.6196067,48.7707566 C9.35398526,48.7350256 9.10972058,48.7018477 8.89235009,48.6720744 C8.76196153,48.6542151 8.66953763,48.6414628 8.62061495,48.6346689 L8.42715889,48.607804 L8.37342899,48.9947161 L8.56688505,49.0215811 L8.56688505,49.0215811 Z" sketch:type="MSShapeGroup"/><path d="M15.6244448,84.5850294 L17.6641728,57.5908159 L17.678889,57.3960586 L17.2893744,57.3666262 L17.2746582,57.5613835 L15.2349302,84.555597 L15.220214,84.7503543 L15.6097286,84.7797867 L15.6244448,84.5850294 L15.6244448,84.5850294 Z" sketch:type="MSShapeGroup"/><path d="M18.8470226,44.7618314 C19.1906161,40.7074284 19.1906161,40.7074284 19.6029283,35.8421448 C20.0152405,30.9768613 20.0152405,30.9768613 20.3588339,26.9224583 C20.5048612,25.199337 20.5048612,25.199337 20.6079392,23.9830161 C20.6852477,23.0707754 20.6852477,23.0707754 20.7024274,22.8680553 L20.7189202,22.6734404 L20.3296904,22.6404548 L20.3131976,22.8350697 C20.2960179,23.0377899 20.2960179,23.0377899 20.2187094,23.9500305 C20.1156313,25.1663514 20.1156313,25.1663514 19.9696041,26.8894727 C19.6260106,30.9438757 19.6260106,30.9438757 19.2136985,35.8091593 C18.8013863,40.6744429 18.8013863,40.6744429 18.4577928,44.7288458 L18.4413001,44.9234607 L18.8305299,44.9564463 L18.8470226,44.7618314 L18.8470226,44.7618314 Z" sketch:type="MSShapeGroup"/><path d="M14.8441943,14.2709793 L16.7973193,43.1772293 L16.8104861,43.3720975 L17.2002225,43.3457639 L17.1870557,43.1508957 L15.2339307,14.2446457 L15.2207639,14.0497775 L14.8310275,14.0761111 L14.8441943,14.2709793 L14.8441943,14.2709793 Z" sketch:type="MSShapeGroup"/><path d="M18.4686176,56.1150316 L20.3132739,76.775182 L20.3306434,76.9697206 L20.7197206,76.9349816 L20.7023511,76.740443 L18.8576948,56.0802926 L18.8403253,55.8857539 L18.4512481,55.920493 L18.4686176,56.1150316 L18.4686176,56.1150316 Z" sketch:type="MSShapeGroup"/><path sketch:type="MSShapeGroup" d="M26.7578125,51.171875 L34.9609375,51.171875 L35.15625,51.171875 L35.15625,50.78125 L34.9609375,50.78125 L26.7578125,50.78125 L26.5625,50.78125 L26.5625,51.171875 L26.7578125,51.171875 L26.7578125,51.171875 Z"/><path sketch:type="MSShapeGroup" d="M26.7578125,50 L34.9609375,50 L35.15625,50 L35.15625,49.609375 L34.9609375,49.609375 L26.7578125,49.609375 L26.5625,49.609375 L26.5625,50 L26.7578125,50 L26.7578125,50 Z"/><path sketch:type="MSShapeGroup" d="M17.3828125,50 L25.1953125,50 L25.390625,50 L25.390625,49.609375 L25.1953125,49.609375 L17.3828125,49.609375 L17.1875,49.609375 L17.1875,50 L17.3828125,50 L17.3828125,50 Z"/><path sketch:type="MSShapeGroup" d="M17.3828125,51.171875 L25.1953125,51.171875 L25.390625,51.171875 L25.390625,50.78125 L25.1953125,50.78125 L17.3828125,50.78125 L17.1875,50.78125 L17.1875,51.171875 L17.3828125,51.171875 L17.3828125,51.171875 Z"/><path d="M93.0808671,53.2620036 C92.5124146,57.6836905 92.5124146,57.6836905 91.8302715,62.9897148 L90.5796759,72.7174261 C90.3380836,74.5966431 90.3380836,74.5966431 90.1675478,75.9231491 C90.039646,76.9180287 90.039646,76.9180287 90.0112234,77.139113 L90.0682846,76.9804989 L82.7820909,88.5299789 L83.4969284,88.6692887 L76.3346691,48.8271215 L76.3341699,48.9680695 L83.4964291,10.6852368 L82.7820909,10.8218249 L90.0682846,22.3713049 L90.0111642,22.212228 L93.1998063,47.2514108 L93.9747976,47.1527187 L90.7861554,22.1135359 C90.7789529,22.056977 90.7594564,22.0026805 90.7290349,21.9544589 L83.4428412,10.4049789 C83.2533495,10.1046121 82.793813,10.1924798 82.728503,10.541567 L75.5662437,48.8243997 C75.5575322,48.8709635 75.557363,48.9187235 75.5657445,48.9653478 L82.7280038,88.8075151 C82.7910787,89.1583878 83.2526277,89.2483359 83.4428412,88.9468249 L90.7290349,77.3973449 C90.7593724,77.3492565 90.7788462,77.2951249 90.7860962,77.2387308 C90.8145188,77.0176464 90.8145188,77.0176464 90.9424206,76.0227669 C91.1129564,74.6962608 91.1129564,74.6962608 91.3545487,72.8170438 C91.9230013,68.3953569 91.9230013,68.3953569 92.6051443,63.0893326 C93.2872874,57.7833082 93.2872874,57.7833082 93.85574,53.3616213 L93.0808671,53.2620036 L93.0808671,53.2620036 Z" sketch:type="MSShapeGroup" transform="translate(84.767190, 49.675908) scale(-1, 1) translate(-84.767190, -49.675908) "/><path d="M91.878792,53.3599143 C91.3172116,57.6304783 91.3172116,57.6304783 90.6433151,62.7551551 C89.9694186,67.8798319 89.9694186,67.8798319 89.4078381,72.150396 C89.1691665,73.9653857 89.1691665,73.9653857 89.0006923,75.2465549 L88.8462577,76.42096 L88.8710614,76.3513813 L83.5487203,84.9524237 L83.8709846,85.0126149 L77.0966067,48.7796327 L77.0967257,48.843601 L83.4804785,13.9828332 L83.1592053,14.0454373 L88.8721714,23.0371047 L88.8462756,22.9658917 L92.0398288,47.1057699 L92.3883547,47.0596621 L89.1948015,22.9197839 L89.1689057,22.8485709 L83.4559396,13.8569035 C83.3702062,13.7219674 83.1634629,13.7622539 83.1346663,13.9195076 L76.7509135,48.7802754 L76.7510324,48.8442437 L83.5254103,85.0772259 C83.5549204,85.2350618 83.7631816,85.2739599 83.8476745,85.1374171 L89.1700157,76.5363747 L89.1948194,76.466796 C89.2228984,76.2532678 89.2228984,76.2532678 89.349254,75.2923909 C89.5177281,74.0112217 89.5177281,74.0112217 89.7563998,72.1962319 C90.3179803,67.9256679 90.3179803,67.9256679 90.9918768,62.8009911 C91.6657733,57.6763143 91.6657733,57.6763143 92.2273537,53.4057502 L91.878792,53.3599143 L91.878792,53.3599143 Z" sketch:type="MSShapeGroup" transform="translate(84.569634, 49.498042) scale(-1, 1) translate(-84.569634, -49.498042) "/><path d="M85.7000039,43.4399803 C85.5425195,43.262527 85.3657648,43.1640625 85.1731595,43.1640625 C84.126634,43.1640625 83.415347,46.364854 83.415347,50.390625 C83.415347,54.416396 84.126634,57.6171875 85.1731595,57.6171875 C85.3834355,57.6171875 85.5738371,57.5005105 85.7421875,57.2913108 L85.4378649,57.0464116 C85.3369237,57.1718456 85.2476328,57.2265625 85.1731595,57.2265625 C84.4937952,57.2265625 83.805972,54.1313583 83.805972,50.390625 C83.805972,46.6498917 84.4937952,43.5546875 85.1731595,43.5546875 C85.2398811,43.5546875 85.3183029,43.5983738 85.4078414,43.6992657 L85.7000039,43.4399803 L85.7000039,43.4399803 Z" sketch:type="MSShapeGroup" transform="translate(84.578767, 50.390625) scale(-1, 1) translate(-84.578767, -50.390625) "/><path d="M84.949422,46.1736812 C84.6386779,44.288819 84.1530266,43.1640625 83.5010263,43.1640625 C82.4545009,43.1640625 81.7432138,46.364854 81.7432138,50.390625 C81.7432138,54.416396 82.4545009,57.6171875 83.5010263,57.6171875 C84.1607175,57.6171875 84.6514211,56.4632728 84.9609375,54.5368151 L84.5752587,54.4748496 C84.3007093,56.1836691 83.8572177,57.2265625 83.5010263,57.2265625 C82.821662,57.2265625 82.1338388,54.1313583 82.1338388,50.390625 C82.1338388,46.6498917 82.821662,43.5546875 83.5010263,43.5546875 C83.8513018,43.5546875 84.28879,44.5678993 84.5639997,46.2372231 L84.949422,46.1736812 L84.949422,46.1736812 Z" sketch:type="MSShapeGroup" transform="translate(83.352076, 50.390625) scale(-1, 1) translate(-83.352076, -50.390625) "/><path d="M82.8125,53.325783 L82.8125,54.6875 L83.2683436,54.3023579 L74.0411476,52.7398579 L73.9741189,52.7285075 L73.9071965,52.7404695 L65.1656425,54.3029695 L65.625,54.6875 L65.625,46.09375 L65.1656425,46.4782805 L73.9071965,48.0407805 L73.9741189,48.0527425 L74.0411476,48.0413921 L83.2683436,46.4788921 L82.8125,46.09375 L82.8125,47.65625 L83.59375,47.65625 L83.59375,46.09375 L83.59375,45.631417 L83.1379064,45.7086079 L73.9107105,47.2711079 L74.0446616,47.2717195 L65.3031075,45.7092195 L64.84375,45.6271121 L64.84375,46.09375 L64.84375,54.6875 L64.84375,55.1541379 L65.3031075,55.0720305 L74.0446616,53.5095305 L73.9107105,53.5101421 L83.1379064,55.0726421 L83.59375,55.149833 L83.59375,54.6875 L83.59375,53.325783 L82.8125,53.325783 L82.8125,53.325783 Z" sketch:type="MSShapeGroup" transform="translate(74.218750, 50.390625) scale(-1, 1) translate(-74.218750, -50.390625) "/><path d="M65.234375,51.953125 L65.625,51.953125 L65.625,53.515625 L65.234375,53.125 L66.796875,53.125 L66.40625,53.515625 L66.40625,47.265625 L66.796875,47.65625 L65.234375,47.65625 L65.625,47.265625 L65.625,48.4375 L65.234375,48.4375 L65.234375,47.265625 L66.796875,47.265625 L66.796875,53.515625 L65.234375,53.515625 L65.234375,51.953125 Z" sketch:type="MSShapeGroup" transform="translate(66.015625, 50.390625) scale(-1, 1) translate(-66.015625, -50.390625) "/><path d="M65.625,48.828125 L65.625,48.828125 L66.015625,48.4375 L66.015625,52.34375 L65.625,51.953125 L83.203125,51.953125 L82.8125,52.34375 L82.8125,48.4375 L83.203125,48.828125 L65.625,48.828125 Z M65.625,48.4375 L83.203125,48.4375 L83.203125,52.34375 L65.625,52.34375 L65.625,48.4375 L65.625,48.4375 Z" sketch:type="MSShapeGroup" transform="translate(74.414062, 50.390625) scale(-1, 1) translate(-74.414062, -50.390625) "/><path d="M73.828125,48.828125 L73.828125,48.828125 L74.21875,48.4375 L74.21875,52.34375 L73.828125,51.953125 L75.390625,51.953125 L75,52.34375 L75,48.4375 L75.390625,48.828125 L73.828125,48.828125 Z M73.828125,48.4375 L75.390625,48.4375 L75.390625,52.34375 L73.828125,52.34375 L73.828125,48.4375 L73.828125,48.4375 Z" sketch:type="MSShapeGroup" transform="translate(74.609375, 50.390625) scale(-1, 1) translate(-74.609375, -50.390625) "/><path d="M95.7093422,10.15625 L94.1468422,10.15625 L93.8208358,10.15625 L93.762518,10.4769979 L86.731268,49.1488729 L86.71875,49.2177219 L86.7309111,49.2866349 L93.7621611,89.1303849 L93.8191152,89.453125 L94.1468422,89.453125 L95.7093422,89.453125 L95.7093422,88.671875 L94.1468422,88.671875 L94.5315233,88.9946151 L87.5002733,49.1508651 L87.4999164,49.2886271 L94.5311664,10.6167521 L94.1468422,10.9375 L95.7093422,10.9375 L95.7093422,10.15625 L95.7093422,10.15625 Z" sketch:type="MSShapeGroup" transform="translate(91.214046, 49.804688) scale(-1, 1) translate(-91.214046, -49.804688) "/><path d="M85.9171785,49.0215811 C85.9663347,49.0284073 86.058998,49.0411926 86.1896345,49.0590859 C86.4073057,49.0889004 86.6518796,49.1221203 86.9178229,49.1578947 C87.6776702,49.2601082 88.456566,49.3623228 89.2102741,49.4577333 C89.4003512,49.4817948 89.5867822,49.5051601 89.7691288,49.5277619 C90.7228416,49.645974 91.5386876,49.740126 92.1746092,49.8037182 L92.3689524,49.8231525 L92.407821,49.4344661 L92.2134778,49.4150318 C91.5811598,49.3518 90.7680974,49.2579692 89.8171789,49.1401034 C89.6351761,49.1175443 89.44908,49.0942209 89.2593311,49.0702009 C88.5067291,48.9749305 87.7288095,48.872844 86.9699002,48.7707566 C86.7042788,48.7350256 86.4600141,48.7018477 86.2426436,48.6720744 C86.112255,48.6542151 86.0198311,48.6414628 85.9709084,48.6346689 L85.7774524,48.607804 L85.7237225,48.9947161 L85.9171785,49.0215811 L85.9171785,49.0215811 Z" sketch:type="MSShapeGroup" transform="translate(89.065772, 49.215478) scale(-1, 1) translate(-89.065772, -49.215478) "/><path d="M83.5065918,84.5850294 L85.5463198,57.5908159 L85.561036,57.3960586 L85.1715214,57.3666262 L85.1568052,57.5613835 L83.1170772,84.555597 L83.102361,84.7503543 L83.4918756,84.7797867 L83.5065918,84.5850294 L83.5065918,84.5850294 Z" sketch:type="MSShapeGroup" transform="translate(84.331699, 71.073206) scale(-1, 1) translate(-84.331699, -71.073206) "/><path d="M80.4680524,44.7618314 C80.8116459,40.7074284 80.8116459,40.7074284 81.223958,35.8421448 C81.6362702,30.9768613 81.6362702,30.9768613 81.9798637,26.9224583 C82.1258909,25.199337 82.1258909,25.199337 82.228969,23.9830161 C82.3062775,23.0707754 82.3062775,23.0707754 82.3234572,22.8680553 L82.3399499,22.6734404 L81.9507201,22.6404548 L81.9342274,22.8350697 C81.9170477,23.0377899 81.9170477,23.0377899 81.8397391,23.9500305 C81.7366611,25.1663514 81.7366611,25.1663514 81.5906339,26.8894727 C81.2470404,30.9438757 81.2470404,30.9438757 80.8347282,35.8091593 C80.4224161,40.6744429 80.4224161,40.6744429 80.0788226,44.7288458 L80.0623298,44.9234607 L80.4515596,44.9564463 L80.4680524,44.7618314 L80.4680524,44.7618314 Z" sketch:type="MSShapeGroup" transform="translate(81.201140, 33.798451) scale(-1, 1) translate(-81.201140, -33.798451) "/><path d="M83.5941943,14.2709793 L85.5473193,43.1772293 L85.5604861,43.3720975 L85.9502225,43.3457639 L85.9370557,43.1508957 L83.9839307,14.2446457 L83.9707639,14.0497775 L83.5810275,14.0761111 L83.5941943,14.2709793 L83.5941943,14.2709793 Z" sketch:type="MSShapeGroup" transform="translate(84.765625, 28.710938) scale(-1, 1) translate(-84.765625, -28.710938) "/><path d="M80.0788989,56.1150316 L81.9235552,76.775182 L81.9409247,76.9697206 L82.3300019,76.9349816 L82.3126324,76.740443 L80.4679761,56.0802926 L80.4506066,55.8857539 L80.0615294,55.920493 L80.0788989,56.1150316 L80.0788989,56.1150316 Z" sketch:type="MSShapeGroup" transform="translate(81.195766, 66.427737) scale(-1, 1) translate(-81.195766, -66.427737) "/><path sketch:type="MSShapeGroup" transform="translate(69.921875, 50.976562) scale(-1, 1) translate(-69.921875, -50.976562) " d="M65.8203125,51.171875 L74.0234375,51.171875 L74.21875,51.171875 L74.21875,50.78125 L74.0234375,50.78125 L65.8203125,50.78125 L65.625,50.78125 L65.625,51.171875 L65.8203125,51.171875 L65.8203125,51.171875 Z"/><path sketch:type="MSShapeGroup" transform="translate(69.921875, 49.804688) scale(-1, 1) translate(-69.921875, -49.804688) " d="M65.8203125,50 L74.0234375,50 L74.21875,50 L74.21875,49.609375 L74.0234375,49.609375 L65.8203125,49.609375 L65.625,49.609375 L65.625,50 L65.8203125,50 L65.8203125,50 Z"/><path sketch:type="MSShapeGroup" transform="translate(79.492188, 49.804688) scale(-1, 1) translate(-79.492188, -49.804688) " d="M75.5859375,50 L83.3984375,50 L83.59375,50 L83.59375,49.609375 L83.3984375,49.609375 L75.5859375,49.609375 L75.390625,49.609375 L75.390625,50 L75.5859375,50 L75.5859375,50 Z"/><path sketch:type="MSShapeGroup" transform="translate(79.492188, 50.976562) scale(-1, 1) translate(-79.492188, -50.976562) " d="M75.5859375,51.171875 L83.3984375,51.171875 L83.59375,51.171875 L83.59375,50.78125 L83.3984375,50.78125 L75.5859375,50.78125 L75.390625,50.78125 L75.390625,51.171875 L75.5859375,51.171875 L75.5859375,51.171875 Z"/><path d="M39.8599473,39.5705613 C39.843779,39.6077482 39.8142858,39.6789251 39.7733766,39.7829515 C39.7057002,39.955043 39.630429,40.1576962 39.5494726,40.3897711 C39.3186922,41.0513415 39.0881112,41.8168707 38.873019,42.6772391 C38.2589626,45.1334648 37.890625,47.8591633 37.890625,50.78125 C37.890625,53.7046313 38.2593403,56.2856385 38.8743129,58.4995398 C39.0899607,59.2758719 39.3212516,59.9512413 39.552883,60.5225987 C39.6342621,60.7233339 39.7099884,60.8969219 39.7781503,61.042983 C39.8195345,61.1316634 39.8495303,61.192055 39.8662269,61.2237786 L39.957193,61.3966142 L40.3028642,61.214682 L40.2118981,61.0418464 C40.1980771,61.0155866 40.1708525,60.9607743 40.1321281,60.8777934 C40.0667755,60.7377522 39.9937286,60.5703063 39.9148905,60.3758388 C39.6887582,59.8180458 39.4622854,59.1567453 39.2506871,58.3949914 C38.6449566,56.2143615 38.28125,53.6684156 38.28125,50.78125 C38.28125,47.8927899 38.6453342,45.1985665 39.251981,42.7719796 C39.4641349,41.9233637 39.6913175,41.1691175 39.9183008,40.5184321 C39.9975618,40.2912173 40.0710637,40.0933274 40.1369017,39.9259108 C40.1761011,39.8262323 40.2038284,39.7593172 40.2181777,39.7263137 L40.2960539,39.5471984 L39.9378234,39.3914461 L39.8599473,39.5705613 L39.8599473,39.5705613 Z" sketch:type="MSShapeGroup"/><path d="M60.5630723,39.7263137 C60.5774216,39.7593172 60.6051489,39.8262323 60.6443483,39.9259108 C60.7101863,40.0933274 60.7836882,40.2912173 60.8629492,40.5184321 C61.0899325,41.1691175 61.3171151,41.9233637 61.529269,42.7719796 C62.1359158,45.1985665 62.5,47.8927899 62.5,50.78125 C62.5,53.6684156 62.1362934,56.2143615 61.5305629,58.3949914 C61.3189646,59.1567453 61.0924918,59.8180458 60.8663595,60.3758388 C60.7875214,60.5703063 60.7144745,60.7377522 60.6491219,60.8777934 C60.6103975,60.9607743 60.5831729,61.0155866 60.5693519,61.0418464 L60.4783858,61.214682 L60.824057,61.3966142 L60.9150231,61.2237786 C60.9317197,61.192055 60.9617155,61.1316634 61.0030997,61.042983 C61.0712616,60.8969219 61.1469879,60.7233339 61.228367,60.5225987 C61.4599984,59.9512413 61.6912893,59.2758719 61.9069371,58.4995398 C62.5219097,56.2856385 62.890625,53.7046313 62.890625,50.78125 C62.890625,47.8591633 62.5222874,45.1334648 61.908231,42.6772391 C61.6931388,41.8168707 61.4625578,41.0513415 61.2317774,40.3897711 C61.150821,40.1576962 61.0755498,39.955043 61.0078734,39.7829515 C60.9669642,39.6789251 60.937471,39.6077482 60.9213027,39.5705613 L60.8434266,39.3914461 L60.4851961,39.5471984 L60.5630723,39.7263137 L60.5630723,39.7263137 Z" sketch:type="MSShapeGroup"/><path d="M50,63.0859375 L50,65.234375 L50,65.625 L50.78125,65.625 L50.78125,65.234375 L50.78125,63.0859375 L50.78125,62.6953125 L50,62.6953125 L50,63.0859375 L50,63.0859375 Z" sketch:type="MSShapeGroup"/><path d="M55.859375,41.40625 L57.8029465,43.1068751 C58.4554314,43.6777994 58.984375,44.8387371 58.984375,45.6975565 L58.984375,50.78125 L55.859375,50.78125 L55.859375,41.40625 Z" sketch:type="MSShapeGroup"/><path d="M51.953125,38.671875 L53.7528437,39.7966992 C54.4847763,40.2541571 55.078125,41.333625 55.078125,42.1882338 L55.078125,51.953125 L51.953125,51.953125 L51.953125,38.671875 Z" sketch:type="MSShapeGroup"/><path d="M41.796875,41.40625 L43.7404465,43.1068751 C44.3929314,43.6777994 44.921875,44.8387371 44.921875,45.6975565 L44.921875,50.78125 L41.796875,50.78125 L41.796875,41.40625 Z" sketch:type="MSShapeGroup" transform="translate(43.359375, 46.093750) scale(-1, 1) translate(-43.359375, -46.093750) "/><path d="M45.703125,38.671875 L47.5028437,39.7966992 C48.2347763,40.2541571 48.828125,41.333625 48.828125,42.1882338 L48.828125,51.953125 L45.703125,51.953125 L45.703125,38.671875 Z" sketch:type="MSShapeGroup" transform="translate(47.265625, 45.312500) scale(-1, 1) translate(-47.265625, -45.312500) "/><circle sketch:type="MSShapeGroup" cx="43.359375" cy="56.25" r="0.78125"/><circle sketch:type="MSShapeGroup" cx="57.421875" cy="56.25" r="0.78125"/><path d="M50,37.5 L50,54.6875 L50.78125,54.6875 L50.78125,37.5 L50,37.5 L50,37.5 Z" sketch:type="MSShapeGroup"/><path sketch:type="MSShapeGroup" d="M54.296875,35.3515625 L54.296875,37.3046875 L54.296875,37.5 L54.6875,37.5 L54.6875,37.3046875 L54.6875,35.3515625 L54.6875,35.15625 L54.296875,35.15625 L54.296875,35.3515625 L54.296875,35.3515625 Z"/><path sketch:type="MSShapeGroup" d="M46.09375,35.3515625 L46.09375,37.3046875 L46.09375,37.5 L46.484375,37.5 L46.484375,37.3046875 L46.484375,35.3515625 L46.484375,35.15625 L46.09375,35.15625 L46.09375,35.3515625 L46.09375,35.3515625 Z"/><path d="M14.453125,16.015625 L16.40625,43.75 C16.40625,43.75 15.234375,44.921875 15.234375,48.4375 C15.234375,48.4375 8.984375,47.265625 8.984375,47.265625 L14.453125,16.015625 Z" sketch:type="MSShapeGroup"/><path d="M8.984375,50.390625 L15.234375,50.78125 C15.234375,50.78125 15.234375,56.640625 16.796875,57.421875 L14.84375,81.640625 L8.984375,50.390625 Z" sketch:type="MSShapeGroup"/><path d="M17.96875,57.421875 L16.40625,83.203125 L19.921875,77.34375 L17.96875,57.421875 Z" sketch:type="MSShapeGroup"/><path d="M16.015625,16.015625 L17.96875,43.359375 L19.921875,21.484375 L16.015625,16.015625 Z" sketch:type="MSShapeGroup"/><path d="M21.09375,26.171875 L19.53125,46.484375 L24.21875,47.265625 L21.09375,26.171875 Z" sketch:type="MSShapeGroup"/><path d="M19.53125,54.6875 L21.09375,73.046875 L23.828125,53.515625 L19.53125,54.6875 Z" sketch:type="MSShapeGroup"/><path d="M89.84375,16.015625 L91.796875,43.75 C91.796875,43.75 90.625,44.921875 90.625,48.4375 C90.625,48.4375 84.375,47.265625 84.375,47.265625 L89.84375,16.015625 Z" sketch:type="MSShapeGroup" transform="translate(88.085938, 32.226562) scale(-1, 1) translate(-88.085938, -32.226562) "/><path d="M83.984375,50.390625 L90.234375,50.78125 C90.234375,50.78125 90.234375,56.640625 91.796875,57.421875 L89.84375,81.640625 L83.984375,50.390625 Z" sketch:type="MSShapeGroup" transform="translate(87.890625, 66.015625) scale(-1, 1) translate(-87.890625, -66.015625) "/><path d="M82.421875,57.421875 L80.859375,83.203125 L84.375,77.34375 L82.421875,57.421875 Z" sketch:type="MSShapeGroup" transform="translate(82.617188, 70.312500) scale(-1, 1) translate(-82.617188, -70.312500) "/><path d="M80.859375,16.015625 L82.8125,43.359375 L84.765625,21.484375 L80.859375,16.015625 Z" sketch:type="MSShapeGroup" transform="translate(82.812500, 29.687500) scale(-1, 1) translate(-82.812500, -29.687500) "/><path d="M78.125,26.171875 L76.5625,46.484375 L81.25,47.265625 L78.125,26.171875 Z" sketch:type="MSShapeGroup" transform="translate(78.906250, 36.718750) scale(-1, 1) translate(-78.906250, -36.718750) "/><path d="M76.953125,54.6875 L78.515625,73.046875 L81.25,53.515625 L76.953125,54.6875 Z" sketch:type="MSShapeGroup" transform="translate(79.101562, 63.281250) scale(-1, 1) translate(-79.101562, -63.281250) "/></g></g><text x="0" y="115" fill="#000000" font-size="5px" font-weight="bold" font-family="'Helvetica Neue', Helvetica, Arial-Unicode, Arial, Sans-serif">Created by Dactrtr</text><text x="0" y="120" fill="#000000" font-size="5px" font-weight="bold" font-family="'Helvetica Neue', Helvetica, Arial-Unicode, Arial, Sans-serif">from the Noun Project</text></svg>