<?xml version="1.0" encoding="UTF-8" standalone="no"?>
<svg
   xmlns:sketch="http://www.bohemiancoding.com/sketch/ns"
   xmlns:dc="http://purl.org/dc/elements/1.1/"
   xmlns:cc="http://creativecommons.org/ns#"
   xmlns:rdf="http://www.w3.org/1999/02/22-rdf-syntax-ns#"
   xmlns:svg="http://www.w3.org/2000/svg"
   xmlns="http://www.w3.org/2000/svg"
   xmlns:sodipodi="http://sodipodi.sourceforge.net/DTD/sodipodi-0.dtd"
   xmlns:inkscape="http://www.inkscape.org/namespaces/inkscape"
   viewBox="0 0 90.637436 79.296875"
   version="1.1"
   x="0px"
   y="0px"
   id="svg158"
   sodipodi:docname="tieshield.svg"
   inkscape:version="0.92.4 (33fec40, 2019-01-16)"
   width="90.637436"
   height="79.296875">
  <metadata
     id="metadata164">
    <rdf:RDF>
      <cc:Work
         rdf:about="">
        <dc:format>image/svg+xml</dc:format>
        <dc:type
           rdf:resource="http://purl.org/dc/dcmitype/StillImage" />
        <dc:title>ICON Tie-Fighter </dc:title>
      </cc:Work>
    </rdf:RDF>
  </metadata>
  <defs
     id="defs162">
    <filter
       inkscape:collect="always"
       style="color-interpolation-filters:sRGB"
       id="filter1685"
       x="-0.022498559"
       width="1.0449971"
       y="-0.025716168"
       height="1.0514323">
      <feGaussianBlur
         inkscape:collect="always"
         stdDeviation="0.84967157"
         id="feGaussianBlur1687" />
    </filter>
  </defs>
  <sodipodi:namedview
     pagecolor="#ffffff"
     bordercolor="#666666"
     borderopacity="1"
     objecttolerance="10"
     gridtolerance="10"
     guidetolerance="10"
     inkscape:pageopacity="0"
     inkscape:pageshadow="2"
     inkscape:window-width="1920"
     inkscape:window-height="956"
     id="namedview160"
     showgrid="false"
     inkscape:zoom="6.088"
     inkscape:cx="-10.344573"
     inkscape:cy="23.010942"
     inkscape:window-x="0"
     inkscape:window-y="31"
     inkscape:window-maximized="1"
     inkscape:current-layer="svg158"
     fit-margin-top="0"
     fit-margin-left="0"
     fit-margin-right="0"
     fit-margin-bottom="0" />
  <title
     id="title10">ICON Tie-Fighter </title>
  <desc
     id="desc12">Created with Sketch.</desc>
  <path
     style="fill:#ff0000;stroke:#800000;stroke-width:0.01642576;stroke-miterlimit:4;stroke-dasharray:none"
     d=""
     id="path4753"
     inkscape:connector-curvature="0" />
  <path
     style="fill:#333333;stroke:#800000;stroke-width:0.01642576;stroke-miterlimit:4;stroke-dasharray:none"
     d=""
     id="path4919"
     inkscape:connector-curvature="0" />
  <path
     style="fill:#333333;stroke:#800000;stroke-width:0.01642576;stroke-miterlimit:4;stroke-dasharray:none"
     d=""
     id="path4921"
     inkscape:connector-curvature="0" />
  <path
     style="fill:#333333;stroke:#800000;stroke-width:0.01642576;stroke-miterlimit:4;stroke-dasharray:none"
     d=""
     id="path4923"
     inkscape:connector-curvature="0" />
  <g
     id="g1234"
     style="filter:url(#filter1685)">
    <g
       style="fill:none;fill-rule:evenodd;stroke:none;stroke-width:1"
       transform="translate(-5.0719058,-10.156248)"
       id="g152"
       sketch:type="MSPage">
      <g
         style="fill:#000000"
         id="g150"
         sketch:type="MSArtboardGroup">
        <path
           inkscape:connector-curvature="0"
           id="path14"
           sketch:type="MSShapeGroup"
           d="m 39.194518,40.374426 -0.0063,0.05024 -0.439935,0.370162 c 0.202485,-1.619882 0.607916,-4.86333 0.607916,-4.86333 0.05352,-0.428157 0.447789,-0.775247 0.877341,-0.775247 h 0.78288 c 0.431022,0 0.802043,0.345722 0.828931,0.775933 l 0.134001,2.144015 -0.389864,0.02437 -0.134002,-2.144016 c -0.01396,-0.22333 -0.213309,-0.409674 -0.439066,-0.409674 h -0.78288 c -0.233075,0 -0.460713,0.200916 -0.489732,0.433073 -0.02251,0.180056 -0.02251,0.180056 -0.112535,0.900276 -0.112534,0.900277 -0.112534,0.900277 -0.247576,1.980608 -0.106647,0.853176 -0.129166,1.033333 -0.189199,1.513594 z" />
        <path
           inkscape:connector-curvature="0"
           id="path16"
           d="m 39.648437,37.5 h 1.953125 0.195313 V 37.109375 H 41.601562 39.648437 39.453125 V 37.5 Z"
           sketch:type="MSShapeGroup" />
        <path
           inkscape:connector-curvature="0"
           id="path18"
           transform="matrix(-1,0,0,1,120.83483,0)"
           sketch:type="MSShapeGroup"
           d="m 59.248093,40.374426 -0.0063,0.05024 -0.439935,0.370162 c 0.202485,-1.619882 0.607916,-4.86333 0.607916,-4.86333 0.05352,-0.428157 0.447789,-0.775247 0.877341,-0.775247 h 0.782881 c 0.431022,0 0.802042,0.345722 0.82893,0.775933 l 0.134001,2.144015 -0.389864,0.02437 -0.134001,-2.144016 c -0.01396,-0.22333 -0.21331,-0.409674 -0.439066,-0.409674 h -0.782881 c -0.233074,0 -0.460712,0.200916 -0.489732,0.433073 -0.02251,0.180056 -0.02251,0.180056 -0.112535,0.900276 -0.112534,0.900277 -0.112534,0.900277 -0.247575,1.980608 -0.106647,0.853176 -0.129167,1.033333 -0.1892,1.513594 z" />
        <path
           inkscape:connector-curvature="0"
           id="path20"
           d="m 59.179687,37.5 h 1.953125 0.195313 V 37.109375 H 61.132812 59.179687 58.984375 V 37.5 Z"
           transform="matrix(-1,0,0,1,120.3125,0)"
           sketch:type="MSShapeGroup" />
        <path
           inkscape:connector-curvature="0"
           id="path22"
           sketch:type="MSShapeGroup"
           d="m 43.083346,37.019952 c -4.847885,2.654928 -7.927096,7.742023 -7.927096,13.370673 0,8.413713 6.820662,15.234375 15.234375,15.234375 8.413713,0 15.234375,-6.820662 15.234375,-15.234375 0,-5.465446 -2.9024,-10.427056 -7.529068,-13.144845 l -0.395701,0.673626 c 4.390196,2.578881 7.143519,7.285647 7.143519,12.471219 0,7.982241 -6.470884,14.453125 -14.453125,14.453125 -7.982241,0 -14.453125,-6.470884 -14.453125,-14.453125 0,-5.340361 2.921125,-10.166285 7.521107,-12.68545 z" />
        <path
           inkscape:connector-curvature="0"
           id="path24"
           sketch:type="MSShapeGroup"
           d="M 45.117187,58.203125 V 55.46875 l -0.195312,0.195312 h 10.9375 L 55.664062,55.46875 v 2.734375 h 0.390625 V 55.46875 55.273437 h -0.195312 -10.9375 -0.195313 v 0.195313 2.734375 z" />
        <path
           inkscape:connector-curvature="0"
           id="path26"
           d="M 42.382812,62.890625 H 58.4032 58.598512 V 62.5 H 58.4032 42.382812 42.1875 v 0.390625 z"
           sketch:type="MSShapeGroup" />
        <path
           inkscape:connector-curvature="0"
           id="path28"
           sketch:type="MSShapeGroup"
           d="m 42.578125,36.328125 c 0,0 2.34375,-1.5625 7.8125,-1.5625 5.46875,0 7.8125,1.171875 7.8125,1.171875 v 1.953125 h -15.625 z m 0.43336,0.650039 0.34789,-0.650039 v 1.5625 l -0.78125,-0.78125 h 15.625 l -0.78125,0.78125 V 35.9375 l 0.431864,0.698771 c -0.04579,-0.0229 -0.167032,-0.07486 -0.366899,-0.146808 -0.352332,-0.12684 -0.789547,-0.255432 -1.314855,-0.376657 -1.528586,-0.352751 -3.447207,-0.565931 -5.78136,-0.565931 -2.315263,0 -4.215352,0.281495 -5.727277,0.746702 -0.51813,0.159425 -0.948857,0.328338 -1.295492,0.494722 -0.195554,0.09387 -0.313287,0.161142 -0.356371,0.189865 z" />
        <path
           inkscape:connector-curvature="0"
           id="path30"
           sketch:type="MSShapeGroup"
           d="m 24.327738,53.262004 c -0.568453,4.421686 -0.568453,4.421686 -1.250596,9.727711 l -1.250596,9.727711 c -0.241592,1.879217 -0.241592,1.879217 -0.412128,3.205723 -0.127901,0.99488 -0.127901,0.99488 -0.156324,1.215964 l 0.05706,-0.158614 -7.286194,11.54948 0.714838,0.13931 -7.1622593,-39.842168 -4.992e-4,0.140948 7.1622595,-38.282832 -0.714339,0.136588 7.286194,11.54948 -0.05712,-0.159077 3.188642,25.039183 0.774991,-0.09869 -3.188642,-25.039183 c -0.0072,-0.05656 -0.0267,-0.110856 -0.05712,-0.159077 L 14.689712,10.404979 C 14.50022,10.104612 14.040684,10.19248 13.975374,10.541567 L 6.8131143,48.8244 c -0.00871,0.04656 -0.00888,0.09432 -4.992e-4,0.140948 l 7.1622589,39.842167 c 0.06307,0.350873 0.524624,0.440821 0.714838,0.13931 l 7.286194,-11.54948 c 0.03034,-0.04809 0.04981,-0.10222 0.05706,-0.158614 0.02842,-0.221085 0.02842,-0.221085 0.156324,-1.215964 0.170536,-1.326506 0.170536,-1.326506 0.412128,-3.205723 0.568453,-4.421687 0.568453,-4.421687 1.250596,-9.727711 0.682143,-5.306025 0.682143,-5.306025 1.250596,-9.727712 l -0.774873,-0.09962 z" />
        <path
           inkscape:connector-curvature="0"
           id="path32"
           sketch:type="MSShapeGroup"
           d="m 23.520774,53.359914 c -0.56158,4.270564 -0.56158,4.270564 -1.235477,9.395241 -0.673897,5.124677 -0.673897,5.124677 -1.235477,9.395241 -0.238672,1.81499 -0.238672,1.81499 -0.407146,3.096159 l -0.154435,1.174405 0.0248,-0.06958 -5.322341,8.601043 0.322264,0.06019 -6.7743774,-36.232982 1.189e-4,0.06397 6.3837525,-34.860768 -0.321273,0.0626 5.712966,8.991668 -0.0259,-0.07121 3.193554,24.139878 0.348525,-0.04611 -3.193553,-24.139878 -0.0259,-0.07121 -5.712966,-8.991667 c -0.08573,-0.134937 -0.292476,-0.09465 -0.321273,0.0626 l -6.3837527,34.860767 1.19e-4,0.06397 6.7743777,36.232982 c 0.02951,0.157836 0.237771,0.196734 0.322264,0.06019 l 5.322341,-8.601042 0.0248,-0.06958 c 0.02808,-0.213528 0.02808,-0.213528 0.154435,-1.174405 0.168474,-1.281169 0.168474,-1.281169 0.407146,-3.096159 0.56158,-4.270564 0.56158,-4.270564 1.235477,-9.395241 0.673896,-5.124677 0.673896,-5.124677 1.235477,-9.395241 l -0.348562,-0.04584 z" />
        <path
           inkscape:connector-curvature="0"
           id="path34"
           sketch:type="MSShapeGroup"
           d="m 17.323719,43.43998 c -0.157484,-0.177453 -0.334239,-0.275918 -0.526844,-0.275918 -1.046525,0 -1.757812,3.200792 -1.757812,7.226563 0,4.025771 0.711287,7.226562 1.757812,7.226562 0.210276,0 0.400678,-0.116677 0.569028,-0.325876 L 17.06158,57.046412 c -0.100941,0.125434 -0.190232,0.18015 -0.264705,0.18015 -0.679364,0 -1.367187,-3.095204 -1.367187,-6.835937 0,-3.740733 0.687823,-6.835938 1.367187,-6.835938 0.06672,0 0.145143,0.04369 0.234682,0.144579 z" />
        <path
           inkscape:connector-curvature="0"
           id="path36"
           sketch:type="MSShapeGroup"
           d="m 19.026521,46.173681 c -0.310744,-1.884862 -0.796396,-3.009619 -1.448396,-3.009619 -1.046526,0 -1.757812,3.200792 -1.757812,7.226563 0,4.025771 0.711286,7.226562 1.757812,7.226562 0.659691,0 1.150395,-1.153914 1.459911,-3.080372 l -0.385679,-0.06196 c -0.274549,1.708819 -0.718041,2.751712 -1.074232,2.751712 -0.679364,0 -1.367188,-3.095204 -1.367188,-6.835937 0,-3.740733 0.687824,-6.835938 1.367188,-6.835938 0.350275,0 0.787764,1.013212 1.062973,2.682536 l 0.385423,-0.06354 z" />
        <path
           inkscape:connector-curvature="0"
           id="path38"
           sketch:type="MSShapeGroup"
           d="M 35.15625,53.325783 V 54.6875 l 0.455844,-0.385142 -9.227196,-1.5625 -0.06703,-0.01135 -0.06692,0.01196 -8.741555,1.5625 0.459358,0.38453 v -8.59375 l -0.459358,0.38453 8.741555,1.5625 0.06692,0.01196 0.06703,-0.01135 9.227196,-1.5625 -0.455844,-0.385142 v 1.5625 h 0.78125 v -1.5625 -0.462333 l -0.455844,0.07719 -9.227196,1.5625 0.133952,6.12e-4 -8.741555,-1.5625 -0.459357,-0.08211 v 0.466638 8.59375 0.466638 l 0.459357,-0.08211 8.741555,-1.5625 -0.133952,6.12e-4 9.227196,1.5625 0.455844,0.07719 V 54.6875 53.325783 Z" />
        <path
           inkscape:connector-curvature="0"
           id="path40"
           sketch:type="MSShapeGroup"
           d="M 33.984375,51.953125 H 34.375 v 1.5625 L 33.984375,53.125 h 1.5625 l -0.390625,0.390625 v -6.25 l 0.390625,0.390625 h -1.5625 L 34.375,47.265625 V 48.4375 h -0.390625 v -1.171875 h 1.5625 v 6.25 h -1.5625 z" />
        <path
           inkscape:connector-curvature="0"
           id="path42"
           sketch:type="MSShapeGroup"
           d="m 17.578125,48.828125 v 0 L 17.96875,48.4375 v 3.90625 L 17.578125,51.953125 H 35.15625 L 34.765625,52.34375 V 48.4375 l 0.390625,0.390625 z m 0,-0.390625 H 35.15625 v 3.90625 H 17.578125 Z" />
        <path
           inkscape:connector-curvature="0"
           id="path44"
           sketch:type="MSShapeGroup"
           d="m 25.390625,48.828125 v 0 L 25.78125,48.4375 v 3.90625 l -0.390625,-0.390625 h 1.5625 L 26.5625,52.34375 V 48.4375 l 0.390625,0.390625 z m 0,-0.390625 h 1.5625 v 3.90625 h -1.5625 z" />
        <path
           inkscape:connector-curvature="0"
           id="path46"
           sketch:type="MSShapeGroup"
           d="M 14.0625,10.15625 H 12.5 12.173994 l -0.05832,0.320748 -7.0312502,38.671875 -0.012518,0.06885 0.012161,0.06891 7.0312502,39.84375 0.05695,0.32274 H 12.5 14.0625 v -0.78125 H 12.5 l 0.384681,0.32274 L 5.8534311,49.150865 5.8530742,49.288627 12.884324,10.616752 12.5,10.9375 h 1.5625 z" />
        <path
           inkscape:connector-curvature="0"
           id="path48"
           sketch:type="MSShapeGroup"
           d="m 8.5668851,49.021581 c 0.049156,0.0068 0.1418194,0.01961 0.2724559,0.03751 0.2176713,0.02981 0.4622451,0.06303 0.7281884,0.09881 0.7598476,0.102213 1.5387426,0.204428 2.2924516,0.299838 0.190077,0.02406 0.376508,0.04743 0.558854,0.07003 0.953713,0.118212 1.769559,0.212364 2.405481,0.275956 l 0.194343,0.01943 0.03887,-0.388686 -0.194344,-0.01943 c -0.632318,-0.06323 -1.44538,-0.157063 -2.396299,-0.274929 -0.182002,-0.02256 -0.368099,-0.04588 -0.557847,-0.0699 -0.752602,-0.09527 -1.530522,-0.197357 -2.2894313,-0.299444 -0.2656214,-0.03573 -0.5098861,-0.06891 -0.7272566,-0.09868 -0.1303886,-0.01786 -0.2228125,-0.03061 -0.2717351,-0.0374 l -0.1934561,-0.02687 -0.05373,0.386912 0.1934561,0.02687 z" />
        <path
           inkscape:connector-curvature="0"
           id="path50"
           sketch:type="MSShapeGroup"
           d="m 15.624445,84.585029 2.039728,-26.994213 0.01472,-0.194757 -0.389515,-0.02943 -0.01472,0.194757 -2.039728,26.994214 -0.01472,0.194757 0.389515,0.02943 z" />
        <path
           inkscape:connector-curvature="0"
           id="path52"
           sketch:type="MSShapeGroup"
           d="m 18.847023,44.761831 c 0.343593,-4.054403 0.343593,-4.054403 0.755905,-8.919686 0.412312,-4.865284 0.412312,-4.865284 0.755906,-8.919687 0.146027,-1.723121 0.146027,-1.723121 0.249105,-2.939442 0.07731,-0.912241 0.07731,-0.912241 0.09449,-1.114961 l 0.01649,-0.194615 -0.38923,-0.03299 -0.01649,0.194615 c -0.01718,0.20272 -0.01718,0.20272 -0.09449,1.11496 -0.103078,1.216321 -0.103078,1.216321 -0.249105,2.939443 -0.343593,4.054403 -0.343593,4.054403 -0.755906,8.919686 -0.412312,4.865284 -0.412312,4.865284 -0.755905,8.919687 l -0.01649,0.194615 0.38923,0.03298 0.01649,-0.194615 z" />
        <path
           inkscape:connector-curvature="0"
           id="path54"
           sketch:type="MSShapeGroup"
           d="m 14.844194,14.270979 1.953125,28.90625 0.01317,0.194869 0.389736,-0.02633 -0.01317,-0.194868 -1.953125,-28.90625 -0.01317,-0.194869 -0.389737,0.02633 z" />
        <path
           inkscape:connector-curvature="0"
           id="path56"
           sketch:type="MSShapeGroup"
           d="m 18.468618,56.115032 1.844656,20.66015 0.01737,0.194539 0.389078,-0.03474 -0.01737,-0.194539 -1.844656,-20.66015 -0.01737,-0.194539 -0.389077,0.03474 0.01737,0.194539 z" />
        <path
           inkscape:connector-curvature="0"
           id="path58"
           d="m 26.757812,51.171875 h 8.203125 0.195313 V 50.78125 H 34.960937 26.757812 26.5625 v 0.390625 z"
           sketch:type="MSShapeGroup" />
        <path
           inkscape:connector-curvature="0"
           id="path60"
           d="m 26.757812,50 h 8.203125 0.195313 V 49.609375 H 34.960937 26.757812 26.5625 V 50 Z"
           sketch:type="MSShapeGroup" />
        <path
           inkscape:connector-curvature="0"
           id="path62"
           d="m 17.382812,50 h 7.8125 0.195313 V 49.609375 H 25.195312 17.382812 17.1875 V 50 Z"
           sketch:type="MSShapeGroup" />
        <path
           inkscape:connector-curvature="0"
           id="path64"
           d="m 17.382812,51.171875 h 7.8125 0.195313 V 50.78125 h -0.195313 -7.8125 -0.195312 v 0.390625 z"
           sketch:type="MSShapeGroup" />
        <path
           inkscape:connector-curvature="0"
           id="path66"
           transform="matrix(-1,0,0,1,169.53438,0)"
           sketch:type="MSShapeGroup"
           d="m 93.080867,53.262004 c -0.568452,4.421686 -0.568452,4.421686 -1.250596,9.727711 l -1.250595,9.727711 c -0.241592,1.879217 -0.241592,1.879217 -0.412128,3.205723 -0.127902,0.99488 -0.127902,0.99488 -0.156325,1.215964 l 0.05706,-0.158614 -7.286194,11.54948 0.714837,0.13931 -7.162259,-39.842168 -4.99e-4,0.140948 7.162259,-38.282832 -0.714338,0.136588 7.286194,11.54948 -0.05712,-0.159077 3.188642,25.039183 0.774992,-0.09869 -3.188643,-25.039183 c -0.0072,-0.05656 -0.0267,-0.110856 -0.05712,-0.159077 L 83.442841,10.404979 C 83.253349,10.104612 82.793813,10.19248 82.728503,10.541567 L 75.566244,48.8244 c -0.0087,0.04656 -0.0089,0.09432 -5e-4,0.140948 l 7.16226,39.842167 c 0.06307,0.350873 0.524624,0.440821 0.714837,0.13931 l 7.286194,-11.54948 c 0.03034,-0.04809 0.04981,-0.10222 0.05706,-0.158614 0.02842,-0.221085 0.02842,-0.221085 0.156325,-1.215964 0.170535,-1.326506 0.170535,-1.326506 0.412128,-3.205723 0.568452,-4.421687 0.568452,-4.421687 1.250595,-9.727711 0.682143,-5.306025 0.682143,-5.306025 1.250596,-9.727712 l -0.774873,-0.09962 z" />
        <path
           inkscape:connector-curvature="0"
           id="path68"
           transform="matrix(-1,0,0,1,169.13927,0)"
           sketch:type="MSShapeGroup"
           d="m 91.878792,53.359914 c -0.56158,4.270564 -0.56158,4.270564 -1.235477,9.395241 -0.673896,5.124677 -0.673896,5.124677 -1.235477,9.395241 -0.238671,1.81499 -0.238671,1.81499 -0.407146,3.096159 l -0.154434,1.174405 0.0248,-0.06958 -5.322341,8.601043 0.322265,0.06019 -6.774378,-36.232982 1.19e-4,0.06397 6.383753,-34.860768 -0.321274,0.0626 5.712966,8.991668 -0.02589,-0.07121 3.193553,24.139878 0.348526,-0.04611 -3.193554,-24.139878 -0.02589,-0.07121 -5.712966,-8.991667 c -0.08573,-0.134937 -0.292477,-0.09465 -0.321274,0.0626 l -6.383753,34.860767 1.19e-4,0.06397 6.774378,36.232982 c 0.02951,0.157836 0.237772,0.196734 0.322264,0.06019 l 5.322342,-8.601042 0.0248,-0.06958 c 0.02808,-0.213528 0.02808,-0.213528 0.154435,-1.174405 0.168474,-1.281169 0.168474,-1.281169 0.407146,-3.096159 0.56158,-4.270564 0.56158,-4.270564 1.235477,-9.395241 0.673896,-5.124677 0.673896,-5.124677 1.235477,-9.395241 l -0.348562,-0.04584 z" />
        <path
           inkscape:connector-curvature="0"
           id="path70"
           transform="matrix(-1,0,0,1,169.15753,0)"
           sketch:type="MSShapeGroup"
           d="m 85.700004,43.43998 c -0.157485,-0.177453 -0.334239,-0.275918 -0.526845,-0.275918 -1.046525,0 -1.757812,3.200792 -1.757812,7.226563 0,4.025771 0.711287,7.226562 1.757812,7.226562 0.210277,0 0.400678,-0.116677 0.569028,-0.325876 l -0.304322,-0.244899 c -0.100941,0.125434 -0.190232,0.18015 -0.264706,0.18015 -0.679364,0 -1.367187,-3.095204 -1.367187,-6.835937 0,-3.740733 0.687823,-6.835938 1.367187,-6.835938 0.06672,0 0.145144,0.04369 0.234682,0.144579 z" />
        <path
           inkscape:connector-curvature="0"
           id="path72"
           transform="matrix(-1,0,0,1,166.70415,0)"
           sketch:type="MSShapeGroup"
           d="m 84.949422,46.173681 c -0.310744,-1.884862 -0.796395,-3.009619 -1.448396,-3.009619 -1.046525,0 -1.757812,3.200792 -1.757812,7.226563 0,4.025771 0.711287,7.226562 1.757812,7.226562 0.659692,0 1.150395,-1.153914 1.459911,-3.080372 l -0.385678,-0.06196 c -0.27455,1.708819 -0.718041,2.751712 -1.074233,2.751712 -0.679364,0 -1.367187,-3.095204 -1.367187,-6.835937 0,-3.740733 0.687823,-6.835938 1.367187,-6.835938 0.350276,0 0.787764,1.013212 1.062974,2.682536 l 0.385422,-0.06354 z" />
        <path
           inkscape:connector-curvature="0"
           id="path74"
           transform="matrix(-1,0,0,1,148.4375,0)"
           sketch:type="MSShapeGroup"
           d="M 82.8125,53.325783 V 54.6875 l 0.455844,-0.385142 -9.227196,-1.5625 -0.06703,-0.01135 -0.06692,0.01196 -8.741553,1.5625 0.459357,0.38453 v -8.59375 l -0.459357,0.38453 8.741553,1.5625 0.06692,0.01196 0.06703,-0.01135 9.227196,-1.5625 L 82.8125,46.09375 v 1.5625 h 0.78125 v -1.5625 -0.462333 l -0.455844,0.07719 -9.227196,1.5625 0.133952,6.12e-4 -8.741555,-1.5625 -0.459357,-0.08211 v 0.466638 8.59375 0.466638 l 0.459357,-0.08211 8.741555,-1.5625 -0.133952,6.12e-4 9.227196,1.5625 0.455844,0.07719 V 54.6875 53.325783 Z" />
        <path
           inkscape:connector-curvature="0"
           id="path76"
           transform="matrix(-1,0,0,1,132.03125,0)"
           sketch:type="MSShapeGroup"
           d="M 65.234375,51.953125 H 65.625 v 1.5625 L 65.234375,53.125 h 1.5625 l -0.390625,0.390625 v -6.25 l 0.390625,0.390625 h -1.5625 L 65.625,47.265625 V 48.4375 h -0.390625 v -1.171875 h 1.5625 v 6.25 h -1.5625 z" />
        <path
           inkscape:connector-curvature="0"
           id="path78"
           transform="matrix(-1,0,0,1,148.82812,0)"
           sketch:type="MSShapeGroup"
           d="m 65.625,48.828125 v 0 L 66.015625,48.4375 v 3.90625 L 65.625,51.953125 H 83.203125 L 82.8125,52.34375 V 48.4375 l 0.390625,0.390625 z m 0,-0.390625 h 17.578125 v 3.90625 H 65.625 Z" />
        <path
           inkscape:connector-curvature="0"
           id="path80"
           transform="matrix(-1,0,0,1,149.21875,0)"
           sketch:type="MSShapeGroup"
           d="m 73.828125,48.828125 v 0 L 74.21875,48.4375 v 3.90625 l -0.390625,-0.390625 h 1.5625 L 75,52.34375 V 48.4375 l 0.390625,0.390625 z m 0,-0.390625 h 1.5625 v 3.90625 h -1.5625 z" />
        <path
           inkscape:connector-curvature="0"
           id="path82"
           transform="matrix(-1,0,0,1,182.42809,0)"
           sketch:type="MSShapeGroup"
           d="m 95.709342,10.15625 h -1.5625 -0.326006 l -0.05832,0.320748 -7.03125,38.671875 -0.01252,0.06885 0.01216,0.06891 7.03125,39.84375 0.05695,0.32274 h 0.327727 1.5625 v -0.78125 h -1.5625 l 0.384681,0.32274 -7.03125,-39.84375 -3.57e-4,0.137762 7.03125,-38.671875 -0.384324,0.320748 h 1.5625 v -0.78125 z" />
        <path
           inkscape:connector-curvature="0"
           id="path84"
           transform="matrix(-1,0,0,1,178.13154,0)"
           sketch:type="MSShapeGroup"
           d="m 85.917179,49.021581 c 0.04916,0.0068 0.141819,0.01961 0.272455,0.03751 0.217672,0.02981 0.462246,0.06303 0.728189,0.09881 0.759847,0.102213 1.538743,0.204428 2.292451,0.299838 0.190077,0.02406 0.376508,0.04743 0.558855,0.07003 0.953713,0.118212 1.769559,0.212364 2.40548,0.275956 l 0.194343,0.01943 0.03887,-0.388686 -0.194343,-0.01943 c -0.632318,-0.06323 -1.445381,-0.157063 -2.396299,-0.274929 -0.182003,-0.02256 -0.368099,-0.04588 -0.557848,-0.0699 -0.752602,-0.09527 -1.530522,-0.197357 -2.289431,-0.299444 -0.265621,-0.03573 -0.509886,-0.06891 -0.727256,-0.09868 -0.130389,-0.01786 -0.222813,-0.03061 -0.271736,-0.0374 l -0.193456,-0.02687 -0.05373,0.386912 0.193457,0.02687 z" />
        <path
           inkscape:connector-curvature="0"
           id="path86"
           transform="matrix(-1,0,0,1,168.6634,0)"
           sketch:type="MSShapeGroup"
           d="m 83.506592,84.585029 2.039728,-26.994213 0.01472,-0.194757 -0.389515,-0.02943 -0.01472,0.194757 -2.039728,26.994214 -0.01472,0.194757 0.389515,0.02943 z" />
        <path
           inkscape:connector-curvature="0"
           id="path88"
           transform="matrix(-1,0,0,1,162.40228,0)"
           sketch:type="MSShapeGroup"
           d="m 80.468052,44.761831 c 0.343594,-4.054403 0.343594,-4.054403 0.755906,-8.919686 0.412312,-4.865284 0.412312,-4.865284 0.755906,-8.919687 0.146027,-1.723121 0.146027,-1.723121 0.249105,-2.939442 0.07731,-0.912241 0.07731,-0.912241 0.09449,-1.114961 l 0.01649,-0.194615 -0.38923,-0.03299 -0.01649,0.194615 c -0.01718,0.20272 -0.01718,0.20272 -0.09449,1.11496 -0.103078,1.216321 -0.103078,1.216321 -0.249105,2.939443 -0.343594,4.054403 -0.343594,4.054403 -0.755906,8.919686 -0.412312,4.865284 -0.412312,4.865284 -0.755905,8.919687 l -0.01649,0.194615 0.38923,0.03298 0.01649,-0.194615 z" />
        <path
           inkscape:connector-curvature="0"
           id="path90"
           transform="matrix(-1,0,0,1,169.53125,0)"
           sketch:type="MSShapeGroup"
           d="m 83.594194,14.270979 1.953125,28.90625 0.01317,0.194869 0.389736,-0.02633 -0.01317,-0.194868 -1.953125,-28.90625 -0.01317,-0.194869 -0.389736,0.02633 z" />
        <path
           inkscape:connector-curvature="0"
           id="path92"
           transform="matrix(-1,0,0,1,162.39153,0)"
           sketch:type="MSShapeGroup"
           d="m 80.078899,56.115032 1.844656,20.66015 0.01737,0.194539 0.389077,-0.03474 -0.01737,-0.194539 -1.844656,-20.66015 -0.01737,-0.194539 -0.389078,0.03474 z" />
        <path
           inkscape:connector-curvature="0"
           id="path94"
           d="m 65.820312,51.171875 h 8.203125 0.195313 V 50.78125 H 74.023437 65.820312 65.625 v 0.390625 z"
           transform="matrix(-1,0,0,1,139.84375,0)"
           sketch:type="MSShapeGroup" />
        <path
           inkscape:connector-curvature="0"
           id="path96"
           d="m 65.820312,50 h 8.203125 0.195313 V 49.609375 H 74.023437 65.820312 65.625 V 50 Z"
           transform="matrix(-1,0,0,1,139.84375,0)"
           sketch:type="MSShapeGroup" />
        <path
           inkscape:connector-curvature="0"
           id="path98"
           d="m 75.585937,50 h 7.8125 0.195313 v -0.390625 h -0.195313 -7.8125 -0.195312 V 50 Z"
           transform="matrix(-1,0,0,1,158.98438,0)"
           sketch:type="MSShapeGroup" />
        <path
           inkscape:connector-curvature="0"
           id="path100"
           d="m 75.585937,51.171875 h 7.8125 0.195313 V 50.78125 h -0.195313 -7.8125 -0.195312 v 0.390625 z"
           transform="matrix(-1,0,0,1,158.98438,0)"
           sketch:type="MSShapeGroup" />
        <path
           inkscape:connector-curvature="0"
           id="path102"
           sketch:type="MSShapeGroup"
           d="m 39.859947,39.570561 c -0.01617,0.03719 -0.04566,0.108364 -0.08657,0.212391 -0.06768,0.172091 -0.142948,0.374744 -0.223904,0.606819 -0.230781,0.66157 -0.461362,1.4271 -0.676454,2.287468 -0.614056,2.456226 -0.982394,5.181924 -0.982394,8.104011 0,2.923381 0.368715,5.504388 0.983688,7.71829 0.215648,0.776332 0.446939,1.451701 0.67857,2.023059 0.08138,0.200735 0.157105,0.374323 0.225267,0.520384 0.04139,0.08868 0.07138,0.149072 0.08808,0.180796 l 0.09097,0.172835 0.345671,-0.181932 -0.09097,-0.172836 c -0.01382,-0.02626 -0.04104,-0.08107 -0.07977,-0.164053 -0.06535,-0.140041 -0.138399,-0.307487 -0.217238,-0.501954 -0.226132,-0.557793 -0.452605,-1.219094 -0.664203,-1.980848 -0.60573,-2.180629 -0.969437,-4.726575 -0.969437,-7.613741 0,-2.88846 0.364084,-5.582684 0.970731,-8.00927 0.212154,-0.848616 0.439336,-1.602863 0.66632,-2.253548 0.07926,-0.227215 0.152763,-0.425105 0.218601,-0.592521 0.0392,-0.09968 0.06693,-0.166594 0.08128,-0.199597 l 0.07788,-0.179116 -0.358231,-0.155752 -0.07788,0.179115 z" />
        <path
           inkscape:connector-curvature="0"
           id="path104"
           sketch:type="MSShapeGroup"
           d="m 60.563072,39.726314 c 0.01435,0.033 0.04208,0.09992 0.08128,0.199597 0.06584,0.167416 0.13934,0.365306 0.218601,0.592521 0.226984,0.650685 0.454166,1.404932 0.66632,2.253548 0.606647,2.426586 0.970731,5.12081 0.970731,8.00927 0,2.887166 -0.363707,5.433112 -0.969437,7.613741 -0.211598,0.761754 -0.438071,1.423055 -0.664203,1.980848 -0.07884,0.194467 -0.151885,0.361913 -0.217238,0.501954 -0.03872,0.08298 -0.06595,0.137794 -0.07977,0.164053 l -0.09097,0.172836 0.345671,0.181932 0.09097,-0.172835 c 0.0167,-0.03172 0.04669,-0.09212 0.08808,-0.180796 0.06816,-0.146061 0.143888,-0.319649 0.225267,-0.520384 0.231631,-0.571358 0.462922,-1.246727 0.67857,-2.023059 0.614973,-2.213902 0.983688,-4.794909 0.983688,-7.71829 0,-2.922087 -0.368338,-5.647785 -0.982394,-8.104011 -0.215092,-0.860368 -0.445673,-1.625898 -0.676454,-2.287468 -0.08096,-0.232075 -0.156227,-0.434728 -0.223904,-0.606819 -0.04091,-0.104027 -0.0704,-0.175204 -0.08657,-0.212391 l -0.07788,-0.179115 -0.358231,0.155752 0.07788,0.179116 z" />
        <path
           inkscape:connector-curvature="0"
           id="path106"
           sketch:type="MSShapeGroup"
           d="M 50,63.085937 V 65.234375 65.625 h 0.78125 V 65.234375 63.085937 62.695312 H 50 Z" />
        <path
           style="fill:#ff0000"
           inkscape:connector-curvature="0"
           id="path108"
           sketch:type="MSShapeGroup"
           d="m 55.859375,41.40625 1.943571,1.700625 c 0.652485,0.570924 1.181429,1.731862 1.181429,2.590681 v 5.083694 h -3.125 z" />
        <path
           style="fill:#ff0000"
           inkscape:connector-curvature="0"
           id="path110"
           sketch:type="MSShapeGroup"
           d="m 51.953125,38.671875 1.799719,1.124824 c 0.731932,0.457458 1.325281,1.536926 1.325281,2.391535 v 9.764891 h -3.125 z" />
        <path
           style="fill:#ff0000"
           inkscape:connector-curvature="0"
           id="path112"
           transform="matrix(-1,0,0,1,86.71875,0)"
           sketch:type="MSShapeGroup"
           d="m 41.796875,41.40625 1.943571,1.700625 c 0.652485,0.570924 1.181429,1.731862 1.181429,2.590681 v 5.083694 h -3.125 z" />
        <path
           style="fill:#ff0000;stroke:#800000;stroke-width:0.1;stroke-miterlimit:4;stroke-dasharray:none"
           inkscape:connector-curvature="0"
           id="path114"
           transform="matrix(-1,0,0,1,94.53125,0)"
           sketch:type="MSShapeGroup"
           d="m 45.703125,38.671875 1.799719,1.124824 c 0.731932,0.457458 1.325281,1.536926 1.325281,2.391535 v 9.764891 h -3.125 z" />
        <circle
           id="circle116"
           r="0.78125"
           cy="56.25"
           cx="43.359375"
           sketch:type="MSShapeGroup" />
        <circle
           id="circle118"
           r="0.78125"
           cy="56.25"
           cx="57.421875"
           sketch:type="MSShapeGroup" />
        <path
           inkscape:connector-curvature="0"
           id="path120"
           sketch:type="MSShapeGroup"
           d="m 50,37.5 v 17.1875 h 0.78125 V 37.5 Z" />
        <path
           inkscape:connector-curvature="0"
           id="path122"
           d="M 54.296875,35.351562 V 37.304687 37.5 H 54.6875 V 37.304687 35.351562 35.15625 h -0.390625 z"
           sketch:type="MSShapeGroup" />
        <path
           inkscape:connector-curvature="0"
           id="path124"
           d="M 46.09375,35.351562 V 37.304687 37.5 h 0.390625 V 37.304687 35.351562 35.15625 H 46.09375 Z"
           sketch:type="MSShapeGroup" />
        <path
           style="fill:#b3b3b3"
           inkscape:connector-curvature="0"
           id="path126"
           sketch:type="MSShapeGroup"
           d="M 14.453125,16.015625 16.40625,43.75 c 0,0 -1.171875,1.171875 -1.171875,4.6875 0,0 -6.25,-1.171875 -6.25,-1.171875 z" />
        <path
           style="fill:#b3b3b3"
           inkscape:connector-curvature="0"
           id="path128"
           sketch:type="MSShapeGroup"
           d="m 8.984375,50.390625 6.25,0.390625 c 0,0 0,5.859375 1.5625,6.640625 l -1.953125,24.21875 z" />
        <path
           style="fill:#b3b3b3"
           inkscape:connector-curvature="0"
           id="path130"
           sketch:type="MSShapeGroup"
           d="m 17.96875,57.421875 -1.5625,25.78125 3.515625,-5.859375 z" />
        <path
           style="fill:#b3b3b3"
           inkscape:connector-curvature="0"
           id="path132"
           sketch:type="MSShapeGroup"
           d="m 16.015625,16.015625 1.953125,27.34375 1.953125,-21.875 z" />
        <path
           style="fill:#b3b3b3"
           inkscape:connector-curvature="0"
           id="path134"
           sketch:type="MSShapeGroup"
           d="m 21.09375,26.171875 -1.5625,20.3125 4.6875,0.78125 z" />
        <path
           style="fill:#b3b3b3"
           inkscape:connector-curvature="0"
           id="path136"
           sketch:type="MSShapeGroup"
           d="m 19.53125,54.6875 1.5625,18.359375 2.734375,-19.53125 z" />
        <path
           style="fill:#b3b3b3"
           inkscape:connector-curvature="0"
           id="path138"
           transform="matrix(-1,0,0,1,176.17188,0)"
           sketch:type="MSShapeGroup"
           d="M 89.84375,16.015625 91.796875,43.75 c 0,0 -1.171875,1.171875 -1.171875,4.6875 0,0 -6.25,-1.171875 -6.25,-1.171875 z" />
        <path
           style="fill:#b3b3b3"
           inkscape:connector-curvature="0"
           id="path140"
           transform="matrix(-1,0,0,1,175.78125,0)"
           sketch:type="MSShapeGroup"
           d="m 83.984375,50.390625 6.25,0.390625 c 0,0 0,5.859375 1.5625,6.640625 l -1.953125,24.21875 z" />
        <path
           style="fill:#b3b3b3"
           inkscape:connector-curvature="0"
           id="path142"
           transform="matrix(-1,0,0,1,165.23438,0)"
           sketch:type="MSShapeGroup"
           d="m 82.421875,57.421875 -1.5625,25.78125 L 84.375,77.34375 Z" />
        <path
           style="fill:#b3b3b3"
           inkscape:connector-curvature="0"
           id="path144"
           transform="matrix(-1,0,0,1,165.625,0)"
           sketch:type="MSShapeGroup"
           d="m 80.859375,16.015625 1.953125,27.34375 1.953125,-21.875 z" />
        <path
           style="fill:#b3b3b3"
           inkscape:connector-curvature="0"
           id="path146"
           transform="matrix(-1,0,0,1,157.8125,0)"
           sketch:type="MSShapeGroup"
           d="m 78.125,26.171875 -1.5625,20.3125 4.6875,0.78125 z" />
        <path
           style="fill:#b3b3b3"
           inkscape:connector-curvature="0"
           id="path148"
           transform="matrix(-1,0,0,1,158.20312,0)"
           sketch:type="MSShapeGroup"
           d="m 76.953125,54.6875 1.5625,18.359375 L 81.25,53.515625 Z" />
      </g>
    </g>
    <path
       inkscape:connector-curvature="0"
       id="path4675"
       d="m 36.171642,51.291245 c -1.240315,-1.02307 -1.525847,-1.525535 -2.043457,-3.595982 -0.619296,-2.477196 -0.759566,-3.851595 -0.745996,-7.309461 0.01428,-3.639607 0.274569,-5.633588 1.125678,-8.623522 0.37839,-1.329279 0.49928,-1.549505 1.199102,-2.184414 0.428058,-0.388353 1.160393,-0.961202 1.627411,-1.272996 l 0.849124,-0.5669 h 3.296888 3.296887 l 0.04256,8.4182 0.04256,8.418199 0.451709,0.05198 0.451708,0.05197 v -8.470174 -8.470174 h 3.348562 3.348562 l 0.9632,0.646036 c 1.594182,1.06925 2.282031,1.898568 2.665757,3.214016 1.499849,5.141634 1.624438,11.49487 0.322114,16.425756 -0.190886,0.722733 -0.455321,1.535808 -0.587637,1.806833 -0.254147,0.520582 -0.315344,0.58215 -1.673469,1.68364 l -0.860742,0.698095 h -8.001918 -8.001911 z m 4.009409,-4.41727 v -1.231932 h 5.174113 5.174113 v 1.231932 c 0,0.985545 0.04928,1.231932 0.246386,1.231932 0.20172,0 0.246387,-0.282888 0.246387,-1.560447 v -1.560447 h -5.749015 -5.749014 v 1.560447 c 0,1.450941 0.02305,1.560447 0.328515,1.560447 0.299314,0 0.328515,-0.109506 0.328515,-1.231932 z m -1.212418,-0.335243 c 0.419308,-0.639946 0.09613,-1.225204 -0.676544,-1.225204 -0.458757,0 -0.620902,0.0855 -0.76598,0.403916 -0.246066,0.540054 0.185947,1.23866 0.76598,1.23866 0.25042,0 0.506641,-0.158069 0.676544,-0.417372 z m 13.871048,0.247336 c 0.360089,-0.192714 0.432939,-0.9631 0.120608,-1.275431 -0.254093,-0.254093 -0.994264,-0.254093 -1.248357,0 -0.276405,0.276405 -0.245339,0.880999 0.06101,1.187348 0.30007,0.30007 0.621103,0.32658 1.066739,0.08808 z M 43.958975,35.12956 c 0,-3.719359 -0.06411,-6.73456 -0.143183,-6.73456 -0.07875,0 -0.696339,0.361105 -1.372419,0.802454 -1.964855,1.282671 -1.933807,1.162862 -1.933807,7.462284 v 5.204382 h 1.724705 1.724704 z m 6.077529,1.530178 c 0,-6.247958 0.01295,-6.195379 -1.8182,-7.379946 -0.612607,-0.396294 -1.193283,-0.720534 -1.290391,-0.720534 -0.123002,0 -0.17656,2.017972 -0.17656,6.652431 v 6.652431 h 1.642576 1.642575 z M 39.852536,35.934595 v -4.779721 l -0.944481,0.820962 c -2.14423,1.86381 -2.176413,1.949227 -2.176413,5.776569 v 2.961912 h 1.560447 1.560447 z m 14.12615,1.855337 c 0,-2.790624 -0.0188,-2.962103 -0.410925,-3.749003 -0.351401,-0.705171 -1.875532,-2.2757 -2.668904,-2.750152 -0.162364,-0.0971 -0.205322,0.875865 -0.205322,4.650377 v 4.773163 h 1.642575 1.642576 z"
       style="fill:#b3b3b3;stroke:#800000;stroke-width:0.01642576;stroke-miterlimit:4;stroke-dasharray:none" />
    <path
       inkscape:connector-curvature="0"
       id="path4677"
       d="m 33.320957,48.156429 c -1.26595,-1.792874 -2.166909,-4.56805 -2.293204,-7.063635 -0.172103,-3.400738 0.631134,-6.354862 2.425347,-8.91987 0.473183,-0.676464 0.507289,-0.697362 0.402099,-0.246387 -0.905831,3.883523 -1.130839,6.048258 -1.015748,9.772198 0.07142,2.310873 0.189673,3.492898 0.493101,4.928854 0.219533,1.038929 0.38,1.911696 0.356593,1.939484 -0.02341,0.02779 -0.189091,-0.157004 -0.368188,-0.410644 z"
       style="fill:#b3b3b3;stroke:#800000;stroke-width:0.01642576;stroke-miterlimit:4;stroke-dasharray:none" />
    <path
       inkscape:connector-curvature="0"
       id="path4679"
       d="m 56.935322,48.505296 c 0,-0.09331 0.14521,-0.831143 0.32269,-1.639642 0.554146,-2.52438 0.752681,-5.791822 0.526162,-8.659441 -0.10869,-1.375964 -0.34593,-3.203953 -0.5272,-4.062199 -0.18127,-0.858245 -0.370851,-1.782194 -0.421292,-2.053219 l -0.09171,-0.492773 0.347049,0.410644 c 0.58671,0.694222 1.788832,3.296554 2.1625,4.681341 0.28087,1.040885 0.354583,1.775042 0.354583,3.531537 0,2.529852 -0.310942,4.009783 -1.266061,6.025837 -0.58186,1.228183 -1.406721,2.552159 -1.406721,2.257915 z"
       style="fill:#b3b3b3;stroke:#800000;stroke-width:0.01642576;stroke-miterlimit:4;stroke-dasharray:none" />
    <path
       inkscape:connector-curvature="0"
       id="path4681"
       d="m 45.765808,53.741397 v -0.872021 l 3.161958,0.01413 3.161958,0.01413 -1.000223,0.467312 c -1.212392,0.566439 -2.716101,0.969858 -4.210068,1.129488 l -1.113625,0.11899 z"
       style="fill:#b3b3b3;stroke:#800000;stroke-width:0.01642576;stroke-miterlimit:4;stroke-dasharray:none" />
    <path
       inkscape:connector-curvature="0"
       id="path4683"
       d="m 43.577672,54.483325 c -1.245544,-0.123119 -2.909155,-0.587598 -4.144318,-1.157089 l -0.81275,-0.374731 3.02128,-0.04486 c 1.661704,-0.02467 3.051774,-0.01437 3.089043,0.0229 0.03727,0.03727 0.04514,0.427036 0.01749,0.866148 l -0.05028,0.798386 z"
       style="fill:#b3b3b3;stroke:#800000;stroke-width:0.01642576;stroke-miterlimit:4;stroke-dasharray:none" />
    <path
       inkscape:connector-curvature="0"
       id="path4685"
       d="m 12.914297,37.368244 v -0.882209 l 2.176412,0.390506 c 1.197027,0.214778 3.100362,0.548091 4.229632,0.740695 l 2.05322,0.350188 4.311761,-0.739182 c 4.049783,-0.694271 4.311761,-0.720603 4.311761,-0.433387 0,0.239976 -0.123744,0.305795 -0.574902,0.305795 -0.547525,0 -0.574901,0.02738 -0.574901,0.574902 v 0.574901 h -7.966492 -7.966491 z"
       style="fill:#b3b3b3;stroke:#800000;stroke-width:0.01642576;stroke-miterlimit:4;stroke-dasharray:none" />
    <path
       inkscape:connector-curvature="0"
       id="path4687"
       d="m 12.914297,43.099181 v -0.906546 h 7.966491 7.966492 v 0.65703 c 0,0.641387 0.01369,0.65703 0.574901,0.65703 0.404723,0 0.574902,0.07386 0.574902,0.249516 0,0.173656 -0.112362,0.224475 -0.36958,0.167151 -0.203269,-0.0453 -2.161951,-0.386525 -4.352628,-0.758278 l -3.983049,-0.675914 -3.819185,0.675798 c -2.100552,0.37169 -3.985496,0.712915 -4.188765,0.758279 -0.348587,0.07779 -0.369579,0.03099 -0.369579,-0.824066 z"
       style="fill:#b3b3b3;stroke:#800000;stroke-width:0.01642576;stroke-miterlimit:4;stroke-dasharray:none" />
    <path
       inkscape:connector-curvature="0"
       id="path4689"
       d="m 61.863048,37.675552 c 0,-0.561213 -0.01564,-0.574902 -0.65703,-0.574902 -0.558646,0 -0.65703,-0.05182 -0.65703,-0.346088 0,-0.207203 0.0824,-0.316114 0.205322,-0.271395 0.112927,0.04108 2.127135,0.392713 4.476018,0.781403 l 4.270697,0.70671 4.065374,-0.734364 4.065375,-0.734364 v 0.873951 0.87395 h -7.884363 -7.884363 z"
       style="fill:#b3b3b3;stroke:#800000;stroke-width:0.01642576;stroke-miterlimit:4;stroke-dasharray:none" />
    <path
       inkscape:connector-curvature="0"
       id="path4691"
       d="m 60.548988,43.780804 c 0,-0.175264 0.191404,-0.270119 0.615966,-0.305258 0.582516,-0.04821 0.618734,-0.08443 0.666946,-0.666945 l 0.05098,-0.615966 h 7.874448 7.874447 v 0.914485 c 0,0.793835 -0.03792,0.903264 -0.287451,0.829433 -0.158098,-0.04678 -2.012318,-0.391645 -4.12049,-0.76637 l -3.83304,-0.681316 -4.051323,0.686318 c -2.228228,0.377475 -4.217634,0.725373 -4.420902,0.773107 -0.261484,0.06141 -0.36958,0.01242 -0.369581,-0.167488 z"
       style="fill:#b3b3b3;stroke:#800000;stroke-width:0.01642576;stroke-miterlimit:4;stroke-dasharray:none" />
    <path
       inkscape:connector-curvature="0"
       id="path4693"
       d="m 12.914297,39.071741 c 0,-0.318781 0.109505,-0.328515 3.695795,-0.328515 3.58629,0 3.695795,0.0097 3.695795,0.328515 0,0.318781 -0.109505,0.328515 -3.695795,0.328515 -3.58629,0 -3.695795,-0.0097 -3.695795,-0.328515 z"
       style="fill:#333333;stroke:#800000;stroke-width:0.01642576;stroke-miterlimit:4;stroke-dasharray:none" />
    <path
       inkscape:connector-curvature="0"
       id="path4695"
       d="m 21.948462,39.071741 c 0,-0.319195 0.109505,-0.328515 3.860053,-0.328515 3.750547,0 3.860053,0.0093 3.860053,0.328515 0,0.319196 -0.109506,0.328515 -3.860053,0.328515 -3.750548,0 -3.860053,-0.0093 -3.860053,-0.328515 z"
       style="fill:#333333;stroke:#800000;stroke-width:0.01642576;stroke-miterlimit:4;stroke-dasharray:none" />
    <path
       inkscape:connector-curvature="0"
       id="path4697"
       d="m 12.914297,40.221544 c 0,-0.318781 0.109505,-0.328515 3.695795,-0.328515 3.58629,0 3.695795,0.0097 3.695795,0.328515 0,0.318781 -0.109505,0.328515 -3.695795,0.328515 -3.58629,0 -3.695795,-0.0097 -3.695795,-0.328515 z"
       style="fill:#333333;stroke:#800000;stroke-width:0.01642576;stroke-miterlimit:4;stroke-dasharray:none" />
    <path
       inkscape:connector-curvature="0"
       id="path4699"
       d="m 12.914297,41.371347 c 0,-0.318781 0.109505,-0.328515 3.695795,-0.328515 3.58629,0 3.695795,0.0097 3.695795,0.328515 0,0.318781 -0.109505,0.328515 -3.695795,0.328515 -3.58629,0 -3.695795,-0.0097 -3.695795,-0.328515 z"
       style="fill:#333333;stroke:#800000;stroke-width:0.01642576;stroke-miterlimit:4;stroke-dasharray:none" />
    <path
       inkscape:connector-curvature="0"
       id="path4701"
       d="m 21.948462,41.371347 c 0,-0.319196 0.109505,-0.328515 3.860053,-0.328515 3.750547,0 3.860053,0.0093 3.860053,0.328515 0,0.319195 -0.109506,0.328515 -3.860053,0.328515 -3.750548,0 -3.860053,-0.0093 -3.860053,-0.328515 z"
       style="fill:#333333;stroke:#800000;stroke-width:0.01642576;stroke-miterlimit:4;stroke-dasharray:none" />
    <path
       inkscape:connector-curvature="0"
       id="path4703"
       d="m 23.887909,40.920056 c 1.111866,-0.02846 2.885847,-0.02837 3.942181,1.95e-4 1.056333,0.02857 0.146625,0.05185 -2.021575,0.05174 -2.1682,-1.07e-4 -3.032473,-0.02348 -1.920606,-0.05194 z"
       style="fill:#333333;stroke:#800000;stroke-width:0.01642576;stroke-miterlimit:4;stroke-dasharray:none" />
    <path
       inkscape:connector-curvature="0"
       id="path4705"
       d="m 21.948462,40.221544 c 0,-0.319195 0.109505,-0.328515 3.860053,-0.328515 3.750547,0 3.860053,0.0093 3.860053,0.328515 0,0.319196 -0.109506,0.328515 -3.860053,0.328515 -3.750548,0 -3.860053,-0.0093 -3.860053,-0.328515 z"
       style="fill:#333333;stroke:#800000;stroke-width:0.01642576;stroke-miterlimit:4;stroke-dasharray:none" />
    <path
       inkscape:connector-curvature="0"
       id="path4707"
       d="m 61.041761,39.071741 c 0,-0.319195 0.109505,-0.328515 3.860052,-0.328515 3.750548,0 3.860053,0.0093 3.860053,0.328515 0,0.319196 -0.109505,0.328515 -3.860053,0.328515 -3.750547,0 -3.860052,-0.0093 -3.860052,-0.328515 z"
       style="fill:#333333;stroke:#800000;stroke-width:0.01642576;stroke-miterlimit:4;stroke-dasharray:none" />
    <path
       inkscape:connector-curvature="0"
       id="path4709"
       d="m 72.097349,39.441771 c 1.066611,-0.02866 2.766677,-0.02856 3.777924,2.11e-4 1.011246,0.02877 0.138564,0.05221 -1.939294,0.0521 -2.077858,-1.15e-4 -2.905242,-0.02365 -1.83863,-0.05231 z"
       style="fill:#333333;stroke:#800000;stroke-width:0.01642576;stroke-miterlimit:4;stroke-dasharray:none" />
    <path
       inkscape:connector-curvature="0"
       id="path4711"
       d="m 62.981207,40.591541 c 1.111866,-0.02846 2.885848,-0.02837 3.942181,1.95e-4 1.056334,0.02857 0.146625,0.05185 -2.021575,0.05174 -2.168199,-1.08e-4 -3.032472,-0.02348 -1.920606,-0.05194 z"
       style="fill:#333333;stroke:#800000;stroke-width:0.01642576;stroke-miterlimit:4;stroke-dasharray:none" />
    <path
       inkscape:connector-curvature="0"
       id="path4713"
       d="m 70.404441,39.071741 c 0,-0.31856 0.109505,-0.328515 3.613667,-0.328515 3.504161,0 3.613666,0.01 3.613666,0.328515 0,0.31856 -0.109505,0.328515 -3.613666,0.328515 -3.504162,0 -3.613667,-0.01 -3.613667,-0.328515 z"
       style="fill:#333333;stroke:#800000;stroke-width:0.01642576;stroke-miterlimit:4;stroke-dasharray:none" />
    <path
       inkscape:connector-curvature="0"
       id="path4715"
       d="m 70.404441,40.221544 c 0,-0.31856 0.109505,-0.328515 3.613667,-0.328515 3.504161,0 3.613666,0.01 3.613666,0.328515 0,0.31856 -0.109505,0.328515 -3.613666,0.328515 -3.504162,0 -3.613667,-0.01 -3.613667,-0.328515 z"
       style="fill:#333333;stroke:#800000;stroke-width:0.01642576;stroke-miterlimit:4;stroke-dasharray:none" />
    <path
       inkscape:connector-curvature="0"
       id="path4717"
       d="m 70.404441,41.371347 c 0,-0.31856 0.109505,-0.328515 3.613667,-0.328515 3.504161,0 3.613666,0.01 3.613666,0.328515 0,0.31856 -0.109505,0.328515 -3.613666,0.328515 -3.504162,0 -3.613667,-0.01 -3.613667,-0.328515 z"
       style="fill:#333333;stroke:#800000;stroke-width:0.01642576;stroke-miterlimit:4;stroke-dasharray:none" />
    <path
       inkscape:connector-curvature="0"
       id="path4719"
       d="m 61.041761,41.371347 c 0,-0.319196 0.109505,-0.328515 3.860052,-0.328515 3.750548,0 3.860053,0.0093 3.860053,0.328515 0,0.319195 -0.109505,0.328515 -3.860053,0.328515 -3.750547,0 -3.860052,-0.0093 -3.860052,-0.328515 z"
       style="fill:#333333;stroke:#800000;stroke-width:0.01642576;stroke-miterlimit:4;stroke-dasharray:none" />
    <path
       inkscape:connector-curvature="0"
       id="path4721"
       d="m 67.655386,40.596449 c 0.249682,-0.03776 0.619261,-0.03675 0.821288,0.0022 0.202026,0.03899 -0.0023,0.06988 -0.453967,0.06865 -0.451708,-0.0012 -0.617003,-0.03313 -0.367321,-0.07089 z"
       style="fill:#333333;stroke:#800000;stroke-width:0.01642576;stroke-miterlimit:4;stroke-dasharray:none" />
    <path
       inkscape:connector-curvature="0"
       id="path4723"
       d="m 61.041761,40.221544 c 0,-0.319195 0.109505,-0.328515 3.860052,-0.328515 3.750548,0 3.860053,0.0093 3.860053,0.328515 0,0.319196 -0.109505,0.328515 -3.860053,0.328515 -3.750547,0 -3.860052,-0.0093 -3.860052,-0.328515 z"
       style="fill:#333333;stroke:#800000;stroke-width:0.01642576;stroke-miterlimit:4;stroke-dasharray:none" />
    <path
       inkscape:connector-curvature="0"
       id="path4725"
       d="m 41.495112,26.360938 c 0,-0.436985 0.07898,-0.577263 0.369579,-0.656443 0.681944,-0.18581 4.626654,-0.286943 5.954336,-0.152655 l 1.314061,0.13291 0.05098,0.615966 0.05098,0.615966 h -3.869969 -3.869967 z"
       style="fill:#333333;stroke:#800000;stroke-width:0.01642576;stroke-miterlimit:4;stroke-dasharray:none" />
    <path
       inkscape:connector-curvature="0"
       id="path4727"
       d="M 7.7714318,78.123975 C 7.7238598,77.920706 6.1509258,69.046667 4.2760238,58.40389 L 0.8671112,39.053384 4.3329378,19.993085 C 6.2391418,9.5099193 7.8342628,0.897286 7.8776498,0.8538985 c 0.04339,-0.043388 0.254062,-0.054846 0.468165,-0.025463 l 0.389278,0.0534242 -3.484876,18.5611033 c -1.916682,10.208607 -3.4895016,18.844061 -3.495155,19.189895 -0.00776,0.474754 6.546233,37.576457 6.976083,39.491117 0.07131,0.317622 0.01576,0.36958 -0.395123,0.36958 -0.36067,0 -0.49934,-0.09077 -0.56459,-0.36958 z"
       style="fill:#333333;stroke:#800000;stroke-width:0.01642576;stroke-miterlimit:4;stroke-dasharray:none" />
    <path
       inkscape:connector-curvature="0"
       id="path4729"
       d="m 81.90247,78.323945 c 0,-0.09328 1.594172,-9.038488 3.542604,-19.87823 L 88.987677,38.737091 85.51424,20.137991 C 83.603849,9.9084853 82.001664,1.3725792 81.953829,1.1693104 81.878998,0.8513235 81.933034,0.7997309 82.340915,0.7997309 h 0.474059 l 3.476,19.1242231 3.476001,19.124221 -3.480049,19.722691 -3.48005,19.722689 h -0.452203 c -0.248711,0 -0.452203,-0.07632 -0.452203,-0.16961 z"
       style="fill:#5599ff;stroke:#800000;stroke-width:0.01642576;stroke-miterlimit:4;stroke-dasharray:none" />
    <path
       inkscape:connector-curvature="0"
       id="path4731"
       d="m 8.0531958,78.367847 c -0.09887,-0.06637 -0.30214,-0.796536 -0.451716,-1.622583 -0.149576,-0.826047 -1.710695,-9.64306 -3.469154,-19.593359 L 0.9351269,39.06045 4.0432058,22.024374 c 4.187342,-22.9517544 3.785865,-20.9668946 4.254446,-21.0335467 0.333997,-0.047509 0.3755,-0.00127 0.294891,0.3285151 -0.101823,0.4165766 -4.126292,21.9176336 -5.6177912,30.0135096 -0.5057263,2.745087 -0.882636,5.087141 -0.8375768,5.204564 0.045059,0.117421 0.00409,0.239442 -0.091049,0.271153 -0.10431,0.03477 -0.1716822,0.642123 -0.1697187,1.529995 0.0045,2.035965 0.016783,2.182312 0.1922308,2.290744 0.085014,0.05254 0.1129322,0.204036 0.062041,0.336656 -0.050891,0.132618 -0.040114,0.370478 0.023948,0.528576 0.064062,0.158098 0.1475184,0.653676 0.185458,1.101286 0.03794,0.447609 0.1227859,0.854146 0.1885474,0.903417 0.065762,0.04927 0.1431715,0.45916 0.1720222,0.910869 0.028851,0.451708 0.121706,0.846079 0.2063453,0.876381 0.084639,0.0303 0.1113081,0.123993 0.059264,0.208201 -0.1317921,0.213245 0.2708752,2.611213 0.438475,2.611213 0.075112,0 0.098458,0.09931 0.051882,0.220685 -0.046577,0.121376 0.290919,2.357332 0.749991,4.968791 1.46996,8.361964 3.447745,19.449487 3.960009,22.199936 0.531463,2.853533 0.514079,3.293787 -0.113425,2.872528 z"
       style="fill:#5599ff;stroke:#800000;stroke-width:0.01642576;stroke-miterlimit:4;stroke-dasharray:none" />
    <path
       inkscape:connector-curvature="0"
       id="path4733"
       d="m 49.707989,26.334338 v -0.582345 l 0.615966,0.113765 c 1.260606,0.232825 1.928699,0.492493 1.982226,0.770433 0.04733,0.245782 -0.110082,0.280491 -1.272087,0.280491 h -1.326105 z"
       style="fill:#5599ff;stroke:#800000;stroke-width:0.01642576;stroke-miterlimit:4;stroke-dasharray:none" />
    <path
       inkscape:connector-curvature="0"
       id="path4735"
       d="m 38.374218,26.775534 c 0,-0.148207 1.966539,-0.844397 2.385184,-0.844397 0.160425,0 0.242937,0.167367 0.242937,0.492772 v 0.492773 h -1.314061 c -0.722733,0 -1.31406,-0.06352 -1.31406,-0.141148 z"
       style="fill:#5599ff;stroke:#800000;stroke-width:0.01642576;stroke-miterlimit:4;stroke-dasharray:none" />
    <path
       inkscape:connector-curvature="0"
       id="path4737"
       d="m 9.3827588,39.138993 c -0.180683,-0.02875 -1.326379,-0.168278 -2.545992,-0.310068 -3.041799,-0.353635 -2.956636,-0.327272 -2.956636,-0.915271 0,-0.272139 0.10159,-0.533782 0.225756,-0.581429 0.124165,-0.04765 1.427817,0.139463 2.897004,0.415799 1.469186,0.276336 2.735041,0.502429 2.813009,0.502429 0.07797,0 0.141761,0.221748 0.141761,0.492773 0,0.271025 -0.05544,0.482707 -0.123193,0.470404 -0.06776,-0.0123 -0.271025,-0.04589 -0.451709,-0.07464 z"
       style="fill:#5599ff;stroke:#800000;stroke-width:0.01642576;stroke-miterlimit:4;stroke-dasharray:none" />
    <path
       inkscape:connector-curvature="0"
       id="path4739"
       d="m 6.3500278,40.356142 c -2.287671,-0.151491 -2.462628,-0.216359 -2.467382,-0.914821 -0.0031,-0.457638 0.01462,-0.457865 3.200508,-0.04107 1.355124,0.177287 2.556258,0.32373 2.669185,0.325428 0.112927,0.0017 0.205322,0.187877 0.205322,0.413731 0,0.473033 0.1378152,0.464754 -3.607633,0.216727 z"
       style="fill:#5599ff;stroke:#800000;stroke-width:0.01642576;stroke-miterlimit:4;stroke-dasharray:none" />
    <path
       inkscape:connector-curvature="0"
       id="path4741"
       d="m 9.6291458,77.931567 c 0,-0.325928 1.0228432,-2.088824 3.3672802,-5.803587 2.094713,-3.319079 3.370677,-5.498851 3.376269,-5.767796 0.0049,-0.237783 0.65536,-5.421656 1.445368,-11.519717 0.941314,-7.265983 1.376969,-11.110028 1.264007,-11.153079 -0.09481,-0.03613 -0.220346,-0.139292 -0.27898,-0.229244 -0.12195,-0.187089 -4.530414,0.966524 -4.866362,1.273436 -0.115225,0.105268 -0.219878,0.408622 -0.232562,0.674121 -0.04399,0.92092 1.748294,20.092804 1.861288,19.909976 0.06247,-0.101081 0.164291,-0.688708 0.226267,-1.305836 0.06198,-0.617129 0.182031,-1.164912 0.266789,-1.217295 0.08692,-0.05372 0.118292,0.07189 0.07196,0.2881 -0.04518,0.210839 -0.167818,1.054656 -0.272529,1.875151 -0.116206,0.910568 -0.30229,1.640166 -0.4776,1.87258 -0.284251,0.37684 -0.286466,0.372462 -0.214604,-0.424136 0.03994,-0.442697 -0.302468,-4.972704 -0.760899,-10.06668 -0.458431,-5.093979 -0.837858,-9.455017 -0.84317,-9.691196 -0.009,-0.399364 -0.02336,-0.407436 -0.205322,-0.115319 -0.107615,0.172757 -0.342246,0.467172 -0.521404,0.654256 -0.300155,0.313437 -0.39906,1.314486 -1.259166,12.744374 -0.513384,6.822321 -0.9696,12.829269 -1.013814,13.348772 -0.04626,0.543484 -0.01725,0.905534 0.0683,0.852659 0.185655,-0.114742 0.188867,0.102574 0.0058,0.391339 -0.287924,0.454126 -0.621101,-0.275097 -0.9185442,-2.010414 -0.164655,-0.960618 -0.264259,-1.781689 -0.221343,-1.824606 0.04292,-0.04292 0.213635,0.661038 0.379374,1.564341 0.1657392,0.903304 0.3250072,1.618708 0.3539292,1.589785 0.04557,-0.04557 2.027521,-25.802324 2.027728,-26.351611 4.3e-5,-0.112927 -0.115159,-0.205322 -0.256003,-0.205322 -0.140844,0 -0.211739,-0.07174 -0.157545,-0.159433 0.05419,-0.08769 -0.01054,-0.370368 -0.14386,-0.628177 -0.504827,-0.976227 -0.812331,-3.305383 -0.817668,-6.193336 -0.0054,-2.924728 0.205876,-4.666524 0.737207,-6.07753 0.372685,-0.989704 0.370579,-0.902881 0.02198,-0.905931 -0.225825,-0.002 -0.239257,-0.03305 -0.06265,-0.144923 0.188256,-0.119261 0.07453,-2.368269 -0.699663,-13.836184 C 10.370552,11.807528 9.9552508,5.4297403 9.9561138,5.1662443 c 0.0021,-0.643032 -0.137878,-0.464996 -0.326562,0.415337 -0.137055,0.639448 -0.14442,0.60095 -0.06528,-0.341187 0.128892,-1.5344029 0.303464,-1.687725 0.8727852,-0.766545 0.437066,0.707188 0.435892,0.966543 -0.002,0.432321 l -0.336564,-0.410644 0.0925,1.149803 c 0.05087,0.632391 0.463055,6.7674107 0.915957,13.6333767 0.452902,6.865966 0.864567,12.797716 0.914812,13.181669 0.07893,0.603181 0.145243,0.698094 0.487715,0.698094 0.278807,0 0.481472,0.158328 0.683331,0.533837 0.238698,0.444041 0.294013,0.478578 0.328843,0.205322 0.02303,-0.180683 0.414603,-4.837385 0.870161,-10.348226 0.891429,-10.783521 0.935608,-11.204961 1.151595,-10.985587 0.176095,0.178858 0.545835,2.887662 0.449913,3.29617 -0.03846,0.163805 -0.12825,-0.238063 -0.199524,-0.89304 -0.07127,-0.654977 -0.175985,-1.190867 -0.232689,-1.190867 -0.0567,0 -0.498947,4.712138 -0.982763,10.471419 -0.483815,5.75928 -0.886981,10.508377 -0.895924,10.553548 -0.06857,0.346335 0.252651,1.149803 0.45968,1.149803 0.137771,0 0.250493,0.100381 0.250493,0.223068 0,0.159502 0.65968,0.330687 2.315011,0.600733 2.516508,0.410537 2.611693,0.392434 2.604235,-0.495286 -0.0019,-0.225854 -0.690384,-5.769547 -1.529969,-12.319317 L 16.255373,12.051373 12.942259,6.8182863 C 9.9955298,2.1639067 9.2693808,0.7942762 9.7523388,0.8015988 c 0.174794,0.00265 6.9255972,10.7395332 7.0977292,11.2886562 0.07825,0.24964 0.828656,5.923667 1.667559,12.60895 0.838903,6.685283 1.602928,12.209364 1.697833,12.275738 0.342709,0.239676 1.40041,0.126783 6.009379,-0.641402 l 4.687019,-0.781194 0.383355,-0.991618 c 0.421853,-1.091194 1.293476,-2.630256 2.02006,-3.5669 0.418171,-0.539069 0.501861,-0.862682 0.776425,-3.002292 0.169253,-1.318953 0.398037,-2.506905 0.508407,-2.639893 0.126125,-0.151972 0.496148,-0.241795 0.996068,-0.241795 0.965474,0 1.135469,0.232004 1.135469,1.549648 0,0.502819 0.05544,0.913727 0.123194,0.913133 0.06776,-6.57e-4 0.342357,-0.145549 0.610225,-0.322119 0.364006,-0.239941 0.518965,-0.270787 0.613451,-0.122111 0.185947,0.292597 0.15838,0.60957 -0.05301,0.60957 -0.265531,0 -2.10449,1.34898 -2.721219,1.996168 -0.381185,0.40001 -0.640777,0.952631 -0.952717,2.028142 -1.366943,4.712984 -1.57604,10.4593 -0.552531,15.184532 0.506108,2.336555 0.847322,3.115174 1.739762,3.969977 1.686143,1.615034 0.647437,1.459814 9.768871,1.459814 h 8.038944 l 0.932006,-0.720907 c 1.343309,-1.039052 1.600987,-1.371115 1.989835,-2.564244 0.758919,-2.328645 1.020015,-4.069225 1.112009,-7.413131 0.116462,-4.233303 -0.201161,-6.963758 -1.195202,-10.274545 -0.366771,-1.221583 -0.481941,-1.410662 -1.263991,-2.075125 -0.473248,-0.402092 -1.211638,-0.952322 -1.640866,-1.222734 -0.686212,-0.432313 -0.749042,-0.517699 -0.520499,-0.707372 0.203856,-0.169186 0.327414,-0.173558 0.572864,-0.02027 0.172122,0.107492 0.341362,0.19544 0.376089,0.19544 0.03473,0 0.115326,-0.461243 0.179105,-1.024983 0.06378,-0.563742 0.193252,-1.118111 0.287717,-1.231932 0.192495,-0.231943 1.40986,-0.276639 1.745128,-0.06407 0.271574,0.172185 0.435496,0.926287 0.698702,3.214284 0.206318,1.793471 0.208427,1.799281 1.168667,3.220434 0.529086,0.783049 1.202991,2.012511 1.497565,2.732143 0.294575,0.719631 0.617022,1.281277 0.716548,1.248102 0.09953,-0.03317 2.132925,0.27567 4.518663,0.686322 4.331087,0.745504 5.448378,0.861332 5.850129,0.606482 0.146418,-0.09288 0.698225,-3.956697 1.764877,-12.357867 0.853522,-6.722503 1.58124,-12.34805 1.617152,-12.501213 0.03591,-0.153163 1.643985,-2.7854857 3.573494,-5.8496067 3.039491,-4.8268095 3.526053,-5.5205813 3.641844,-5.1927845 0.11231,0.3179377 -0.403239,1.2282718 -3.229012,5.7016465 l -3.362661,5.3233017 -1.567134,12.270378 c -0.861924,6.748707 -1.526042,12.37746 -1.475818,12.508341 0.119504,0.311425 0.384878,0.301767 2.737472,-0.09962 2.108471,-0.359741 2.305253,-0.419882 2.157278,-0.659307 -0.05198,-0.0841 0.02256,-0.152907 0.165644,-0.152907 0.630383,0 0.61399,-0.590835 -0.323099,-11.644938 -0.502445,-5.92692 -0.938092,-10.850135 -0.968108,-10.940476 -0.03002,-0.09034 -0.10932,0.398229 -0.176232,1.085714 -0.06691,0.687485 -0.186731,1.352728 -0.266262,1.478318 -0.187148,0.295534 -0.182214,0.200483 0.0875,-1.685391 0.124694,-0.871871 0.354111,-1.779648 0.509814,-2.017281 0.338213,-0.516179 0.48747,-0.459125 0.237543,0.0908 -0.134659,0.296294 0.02204,2.754367 0.647946,10.16413 0.454058,5.375329 0.871837,10.20474 0.928399,10.732029 l 0.10284,0.958702 0.308323,-0.506994 c 0.213055,-0.350342 0.435951,-0.506996 0.72138,-0.506996 0.265504,0 0.413058,-0.09194 0.413058,-0.257387 0,-0.360829 1.782446,-26.9366897 1.86365,-27.7866067 0.03653,-0.382311 0.0017,-0.655133 -0.07733,-0.606271 -0.183701,0.113532 -0.181116,-0.109993 0.0047,-0.403302 0.07886,-0.124501 0.220584,-0.178649 0.314949,-0.120329 0.196557,0.121479 0.597539,1.886544 0.459857,2.024226 -0.05007,0.05007 -0.142816,-0.232812 -0.206109,-0.62862 -0.06329,-0.395808 -0.145941,-0.627055 -0.183666,-0.513882 -0.03772,0.113173 -0.495698,6.4697717 -1.017722,14.1257777 -0.797125,11.69068 -0.913267,13.949214 -0.725197,14.102373 0.308134,0.250936 0.281158,0.404185 -0.04886,0.277546 -0.225828,-0.08666 -0.251094,-0.03628 -0.146772,0.292607 0.807355,2.545302 0.809114,2.559563 0.809114,6.556943 0,3.534936 -0.03126,3.963812 -0.371163,5.091984 -0.204141,0.677563 -0.384185,1.398243 -0.400098,1.601511 -0.01825,0.233088 -0.136252,0.36958 -0.319516,0.36958 -0.214842,0 -0.270343,0.09633 -0.212942,0.369579 0.0427,0.203269 0.505513,6.146794 1.028466,13.207836 0.522955,7.061039 0.995979,12.810349 1.051167,12.776243 0.05518,-0.03411 0.198288,-0.634637 0.318005,-1.334511 0.119716,-0.699873 0.248044,-1.181365 0.285173,-1.069981 0.03713,0.111384 -0.05869,0.903408 -0.212935,1.760052 -0.229905,1.276861 -0.33298,1.557536 -0.571986,1.557536 -0.160352,0 -0.336413,-0.116918 -0.391249,-0.259821 -0.139279,-0.362951 -0.125074,-0.432278 0.06455,-0.31508 0.09034,0.05583 0.164167,-0.0322 0.164057,-0.195628 -1.1e-4,-0.163429 -0.443523,-6.13165 -0.985364,-13.262713 C 78.22952,48.929353 78.092386,47.516533 77.818645,47.213269 77.6502,47.026657 77.435557,46.72969 77.341659,46.553343 c -0.21798,-0.409378 -0.178545,-0.762293 -1.194713,10.692165 -0.449952,5.071951 -0.769896,9.359073 -0.710987,9.526938 0.09912,0.282444 0.08603,0.285429 -0.175555,0.04 -0.194691,-0.182669 -0.353696,-0.796133 -0.510889,-1.971091 -0.261085,-1.951499 -0.27126,-2.166456 -0.08021,-1.69442 0.07568,0.186988 0.190839,0.837101 0.255908,1.444698 0.06507,0.607597 0.146797,1.076229 0.181621,1.041404 0.03482,-0.03482 0.470394,-4.613403 0.967932,-10.17462 0.598754,-6.692553 0.854921,-10.24194 0.757641,-10.497674 -0.126594,-0.332797 -0.473482,-0.474092 -2.501693,-1.018997 -1.547068,-0.415639 -2.375404,-0.570571 -2.415026,-0.451708 -0.03317,0.0995 -0.171516,0.180917 -0.307441,0.180917 -0.193065,0 -0.226227,0.13477 -0.15157,0.615966 0.05256,0.338781 0.728139,5.563117 1.501281,11.609635 0.773142,6.046519 1.452306,11.0728 1.509252,11.169514 0.05695,0.09672 1.519721,2.430279 3.25061,5.185699 1.730887,2.755421 3.195879,5.095424 3.255534,5.200009 0.05966,0.104582 0.05129,0.344702 -0.01858,0.533597 -0.10492,0.283627 -0.744233,-0.636382 -3.670551,-5.282135 L 73.740718,67.077654 72.310054,55.826012 C 71.52319,49.637608 70.839206,44.339417 70.790092,44.052254 c -0.149424,-0.873658 -0.745557,-0.868933 -6.244259,0.0495 l -4.796446,0.801133 -0.446381,1.135191 c -1.012862,2.57581 -3.480721,5.4749 -5.988129,7.034487 -7.878686,4.900478 -18.337032,1.606242 -21.916313,-6.903337 L 30.870892,44.914709 26.018985,44.094732 C 22.102341,43.432813 21.045476,43.305024 20.536233,43.43179 l -0.630846,0.157037 -1.514419,11.771027 -1.514418,11.771026 -3.394781,5.393888 c -1.867129,2.966638 -3.4977952,5.502122 -3.6237022,5.634409 -0.198437,0.20849 -0.228921,0.17818 -0.228921,-0.227607 z M 44.94452,53.690664 v -0.985546 l -3.490473,0.0052 c -3.941371,0.0059 -4.000852,0.04477 -1.528566,0.998983 1.592871,0.61479 2.993609,0.936214 4.156687,0.953825 l 0.862352,0.01306 z m 3.757591,0.649798 c 0.779088,-0.184662 2.007849,-0.621868 2.730583,-0.971571 l 1.31406,-0.635823 -3.572602,-0.01398 -3.572602,-0.01397 v 0.985546 0.985545 h 0.842019 c 0.463111,0 1.479455,-0.151086 2.258542,-0.335747 z M 33.863945,48.187311 c -1.244293,-4.324294 -1.224336,-10.6267 0.04971,-15.696754 0.248214,-0.987773 0.43317,-1.795951 0.411013,-1.795951 -0.02216,0 -0.367927,0.461974 -0.768377,1.02661 -0.987249,1.392022 -1.663507,2.783727 -2.191224,4.50943 -0.39274,1.284308 -0.442955,1.718758 -0.45179,3.908769 -0.01142,2.83094 0.206546,3.918372 1.226283,6.11789 0.553019,1.19283 1.939164,3.406475 2.058406,3.287233 0.02414,-0.02414 -0.126167,-0.634893 -0.334016,-1.357227 z M 58.154269,46.95799 c 2.250593,-4.376438 2.250777,-9.18072 4.93e-4,-13.445088 -0.666819,-1.263658 -1.682435,-2.738592 -1.80284,-2.618186 -0.02805,0.02805 0.09421,0.56735 0.271685,1.198443 0.921396,3.276373 1.320512,7.884594 0.983132,11.351302 -0.166324,1.709039 -0.719743,4.643952 -1.080308,5.72912 -0.24243,0.729624 0.942869,-0.883666 1.627815,-2.215591 z M 13.071136,46.422267 c 0.166443,-0.383952 0.353362,-0.940201 0.415375,-1.236107 l 0.112752,-0.538011 -0.670998,0.107296 -0.670998,0.107298 -0.01264,-1.992084 c -0.01567,-2.470367 -0.01567,-2.827863 0,-5.29823 l 0.01264,-1.992084 0.670998,0.107298 0.670998,0.107296 -0.112752,-0.538011 c -0.190495,-0.908975 -0.704329,-1.934201 -0.969404,-1.934201 -0.33233,0 -0.690361,0.720542 -1.037401,2.087782 -0.22882,0.901492 -0.281593,1.839323 -0.275341,4.893164 0.0069,3.358935 0.04739,3.921692 0.365305,5.074244 0.539642,1.956385 0.974868,2.259108 1.501466,1.04435 z m 65.523254,0.328515 c 0.740032,-1.389453 1.153713,-5.529118 0.869966,-8.705651 -0.269647,-3.018671 -0.816799,-4.860123 -1.391342,-4.682593 -0.266759,0.08243 -0.766377,1.12615 -0.882952,1.844525 l -0.09584,0.590568 0.679417,-0.108643 0.679419,-0.108643 v 4.641833 4.641833 l -0.657031,-0.08813 c -0.734122,-0.09847 -0.786232,0.0072 -0.498459,1.01059 0.206255,0.719169 0.614166,1.333886 0.885133,1.333886 0.118165,0 0.303422,-0.16631 0.411685,-0.369579 z M 12.947829,44.309515 c 0.0335,-0.100497 1.906035,-0.514752 4.161191,-0.920563 l 4.100283,-0.73784 4.252146,0.708423 c 2.626404,0.437571 4.341777,0.798057 4.486578,0.942857 0.188165,0.188165 0.27287,0.193564 0.429195,0.02735 0.150427,-0.159942 0.148023,-0.224218 -0.01056,-0.282365 -0.255095,-0.09354 -0.273792,-0.869197 -0.02095,-0.869197 0.134677,0 0.13376,-0.06098 -0.0034,-0.226248 -0.267695,-0.322553 -0.234786,-6.460342 0.03517,-6.559826 0.147418,-0.05433 0.144948,-0.124215 -0.0102,-0.288704 -0.169128,-0.179307 -0.240501,-0.172316 -0.410644,0.04021 -0.145334,0.181539 -1.452016,0.46582 -4.440225,0.966012 l -4.234288,0.708772 -4.060719,-0.709979 c -2.810053,-0.491311 -4.124146,-0.788834 -4.266657,-0.966012 -0.170158,-0.211551 -0.241502,-0.218328 -0.410644,-0.03901 -0.16345,0.173287 -0.163326,0.232198 6.08e-4,0.292309 0.130931,0.04801 0.205977,0.412527 0.20713,1.006078 0.001,0.511936 0.04762,1.207978 0.103621,1.546759 l 0.101812,0.615966 3.715368,0.03782 3.715368,0.03782 -3.73686,0.04739 -3.736859,0.04739 v 0.489688 0.48969 l 3.736859,0.03782 3.73686,0.03782 -3.71586,0.04734 -3.715859,0.04734 -0.101321,0.612937 c -0.05573,0.337114 -0.102135,1.031792 -0.103129,1.543728 -0.0011,0.5664 -0.0775,0.956022 -0.195147,0.995238 -0.106337,0.03545 -0.138933,0.152481 -0.07243,0.260076 0.152004,0.245946 0.383732,0.252397 0.463564,0.01291 z m 47.635407,-0.0022 c 0.03476,-0.104276 1.956286,-0.504925 4.407579,-0.919003 l 4.345952,-0.734128 4.02431,0.696884 c 2.455214,0.425164 4.096229,0.784601 4.208762,0.921856 0.101449,0.123735 0.304717,0.178824 0.451708,0.122418 0.335557,-0.128765 0.349639,-0.395923 0.02087,-0.395923 -0.20172,0 -0.246387,-0.282888 -0.246387,-1.560447 v -1.560447 l -3.736859,-0.03782 -3.736859,-0.03782 3.736859,-0.04739 3.736859,-0.04739 v -0.489688 -0.48969 l -3.736859,-0.03782 -3.736859,-0.03782 3.736859,-0.04739 3.736859,-0.04739 v -1.557362 c 0,-1.361339 0.03544,-1.557364 0.281585,-1.557364 0.265313,0 0.265405,-0.01618 0.0016,-0.279978 -0.255172,-0.255171 -0.298311,-0.256807 -0.486907,-0.01845 -0.14568,0.184117 -1.385572,0.468989 -4.18897,0.962442 l -3.982042,0.700917 -4.312965,-0.705263 c -2.372166,-0.387894 -4.386917,-0.793887 -4.477258,-0.902205 -0.178719,-0.214278 -0.574902,-0.150901 -0.574902,0.09197 0,0.08281 0.110874,0.15057 0.246387,0.15057 0.151427,0 0.246386,0.153864 0.246386,0.39922 0,0.283408 0.107213,0.41987 0.36958,0.470404 0.258988,0.04988 0.197547,0.08176 -0.205322,0.106521 -0.316196,0.01944 -0.482507,0.07262 -0.36958,0.118185 0.112927,0.04557 0.205322,0.335396 0.205322,0.644062 0,0.308668 0.07392,0.561214 0.164258,0.561214 0.09034,0 0.164257,0.18479 0.164257,0.410644 v 0.410644 h 3.942181 3.942182 v -0.410644 c 0,-0.225854 0.07392,-0.410644 0.164257,-0.410644 0.09734,0 0.164258,0.602278 0.164258,1.478318 0,0.87604 -0.06692,1.478318 -0.164258,1.478318 -0.09034,0 -0.164257,-0.18479 -0.164257,-0.410644 v -0.410608 h -3.942138 -3.942181 v 0.410644 c 0,0.225854 -0.06267,0.410644 -0.139261,0.410644 -0.07659,0 -0.146048,0.23874 -0.154344,0.530532 -0.0083,0.291794 -0.09346,0.556659 -0.189255,0.588591 -0.399619,0.133206 -0.134712,0.343091 0.318603,0.252428 0.313914,-0.06278 0.492772,-0.03148 0.492772,0.08624 0,0.101634 -0.147832,0.18479 -0.328515,0.18479 -0.219009,0 -0.328515,0.109505 -0.328515,0.328515 0,0.182508 -0.109506,0.328515 -0.246386,0.328515 -0.2565,0 -0.325882,0.194267 -0.136881,0.383267 0.164977,0.164977 0.348439,0.131859 0.417515,-0.07537 z m 8.17863,-4.08582 v -0.492724 h -3.942182 -3.942181 v 0.492773 0.492773 h 3.942181 3.942182 z M 56.394832,28.600322 56.231591,27.245197 h -1.044323 c -0.97383,0 -1.044249,0.02495 -1.043203,0.36958 6.57e-4,0.232385 0.199918,0.504901 0.536641,0.734116 0.294537,0.200494 0.825118,0.661112 1.179072,1.023594 0.353955,0.362482 0.655871,0.641936 0.670923,0.621008 0.01505,-0.02093 -0.04609,-0.647854 -0.135869,-1.393173 z M 35.86929,28.417293 c 0.383952,-0.321549 0.698095,-0.716812 0.698095,-0.878364 0,-0.251638 -0.151135,-0.293732 -1.054622,-0.293732 -1.188966,0 -1.101288,-0.117741 -1.338121,1.796948 l -0.110524,0.893532 0.55354,-0.466876 c 0.304444,-0.256782 0.86768,-0.729961 1.251632,-1.051508 z m 0.618512,-2.116577 c -0.131307,-0.876513 -0.273172,-1.020491 -1.009044,-1.024095 -0.629906,-0.0031 -0.812111,0.206774 -0.960458,1.106224 l -0.11514,0.698095 h 1.100764 1.100762 z m 19.626232,0.134926 c 0,-0.787342 -0.337152,-1.161536 -1.046556,-1.161536 -0.709313,0 -0.924535,0.256191 -0.924535,1.100526 v 0.706308 h 0.985546 0.985545 z"
       style="fill:#5599ff;stroke:#800000;stroke-width:0.01642576;stroke-miterlimit:4;stroke-dasharray:none" />
    <path
       inkscape:connector-curvature="0"
       id="path4743"
       d="m 80.752667,38.748375 c 0,-0.456246 5.88e-4,-0.456475 2.258542,-0.881411 3.875426,-0.729336 3.589752,-0.721628 3.714035,-0.100209 0.05898,0.294893 0.07371,0.569697 0.03273,0.610676 -0.04098,0.04098 -1.131751,0.210921 -2.423939,0.37765 -3.99037,0.514874 -3.581366,0.51564 -3.581366,-0.0067 z"
       style="fill:#5599ff;stroke:#800000;stroke-width:0.01642576;stroke-miterlimit:4;stroke-dasharray:none" />
    <path
       inkscape:connector-curvature="0"
       id="path4745"
       d="m 80.752667,40.179289 c 0,-0.464171 -0.327799,-0.385061 3.65409,-0.88187 1.241845,-0.154942 2.286386,-0.250625 2.321202,-0.212631 0.03482,0.03799 0.02804,0.300257 -0.01505,0.582804 l -0.07835,0.513721 -1.832207,0.107578 c -1.007714,0.05917 -2.331139,0.151687 -2.940945,0.205597 -1.100966,0.09733 -1.108739,0.09512 -1.10874,-0.315199 z"
       style="fill:#ff0000;stroke:#800000;stroke-width:0.01642576;stroke-miterlimit:4;stroke-dasharray:none" />
    <path
       inkscape:connector-curvature="0"
       id="path4747"
       d="m 34.356178,28.692404 c 0.05629,-0.479768 0.131031,-0.9647 0.16608,-1.077627 0.08829,-0.284469 1.886079,-0.284469 1.867356,0 -0.0074,0.112927 -0.491026,0.597859 -1.074652,1.077627 l -1.061139,0.872305 z"
       style="fill:#ff0000;stroke:#800000;stroke-width:0.01642576;stroke-miterlimit:4;stroke-dasharray:none" />
    <path
       inkscape:connector-curvature="0"
       id="path4749"
       d="m 34.692553,26.300716 c 0.151275,-0.838362 0.173838,-0.862352 0.811073,-0.862352 0.615995,0 0.899501,0.333107 0.899501,1.056876 0,0.401751 -0.04256,0.421442 -0.910859,0.421442 h -0.91086 z"
       style="fill:#ff0000;stroke:#800000;stroke-width:0.01642576;stroke-miterlimit:4;stroke-dasharray:none" />
    <path
       inkscape:connector-curvature="0"
       id="path4751"
       d="m 54.338821,26.218587 c 0.04763,-0.65835 0.08151,-0.70107 0.595076,-0.750366 0.705885,-0.06776 1.015879,0.204947 1.015879,0.893672 v 0.554789 h -0.830732 -0.830732 z"
       style="fill:#ff0000;stroke:#800000;stroke-width:0.01642576;stroke-miterlimit:4;stroke-dasharray:none" />
    <path
       inkscape:connector-curvature="0"
       id="path4755"
       d="m 55.26876,28.62375 c -1.192715,-1.054327 -1.203518,-1.214295 -0.08201,-1.214295 h 0.903641 l 0.113813,0.910928 c 0.0626,0.50101 0.0756,0.94914 0.0289,0.995843 -0.0467,0.0467 -0.480659,-0.264911 -0.964346,-0.692476 z"
       style="fill:#ff0000;stroke:#800000;stroke-width:0.01642576;stroke-miterlimit:4;stroke-dasharray:none" />
    <path
       inkscape:connector-curvature="0"
       id="path4757"
       d="m 5.6645308,40.219778 c -1.422924,-0.136209 -1.620142,-0.217154 -1.620142,-0.664958 0,-0.406181 0.342986,-0.410891 3.36728,-0.04625 2.136851,0.257644 2.6486662,0.413952 2.443331,0.746192 -0.09559,0.154667 -2.411197,0.135333 -4.190469,-0.03499 z"
       style="fill:#ff0000;stroke:#800000;stroke-width:0.01642576;stroke-miterlimit:4;stroke-dasharray:none" />
    <path
       inkscape:connector-curvature="0"
       id="path4915"
       d="M 7.0877544,78.781006 C 7.0416716,78.577737 5.4448327,69.556571 3.5392232,58.733969 L 0.07447879,39.056513 3.5504211,19.887057 C 5.4621895,9.3438571 7.0634039,0.5857207 7.1086752,0.42453225 7.1786138,0.17551707 7.3625924,0.13579305 8.332576,0.16027198 c 0.6278739,0.0158453 1.1808218,0.0922898 1.2287732,0.16987674 0.047951,0.0775869 -0.02369,0.1410671 -0.1592021,0.1410671 -0.3832879,0 -0.4813137,0.30730207 -0.2249881,0.70531798 C 9.3869937,1.50236 9.0594334,3.4139026 5.9279448,20.137965 L 2.4453704,38.73704 5.7754308,57.260173 c 1.8315334,10.187723 3.4014685,18.914679 3.4887446,19.393239 0.1316413,0.721823 0.1132782,0.926035 -0.1077523,1.19829 C 8.9064175,78.159646 8.7749448,77.538726 7.0245254,67.783172 5.9985218,62.064979 4.4289945,53.321084 3.5366871,48.352293 2.6443796,43.383502 1.9131243,39.064179 1.9116752,38.753798 1.910226,38.443417 3.4612743,29.896125 5.358449,19.759816 7.2556238,9.6235071 8.8078577,1.1819449 8.8078577,1.0007891 8.8078577,0.74340861 8.6732215,0.65454049 8.1918919,0.59421374 7.5317227,0.51147241 7.1807293,0.60624426 7.4746264,0.78788274 7.5988536,0.8646593 6.5776435,6.8240729 4.1853055,19.983174 L 0.71582468,39.067121 4.1851846,58.730664 c 2.3940728,13.56906 3.413559,19.69803 3.2893209,19.774814 -0.3410611,0.210787 0.1033029,0.280169 0.9227083,0.144071 1.1062701,-0.183745 1.2319317,-0.182903 1.2319317,0.0083 0,0.09034 -0.1478318,0.164257 -0.3285151,0.164257 -0.1806833,0 -0.3285151,0.07392 -0.3285151,0.164258 0,0.09034 -0.4051293,0.164257 -0.9002872,0.164257 -0.7993004,0 -0.9096856,-0.04146 -0.9840737,-0.369579 z"
       style="fill:#333333;stroke:#800000;stroke-width:0.01642576;stroke-miterlimit:4;stroke-dasharray:none" />
    <path
       inkscape:connector-curvature="0"
       id="path4917"
       d="M 6.0659515,57.982085 2.6004273,38.661098 6.0083551,20.510638 C 7.8827153,10.527885 9.4456979,2.2219027 9.4816498,2.0528998 9.5250131,1.8490571 10.656245,3.5078167 12.842233,6.9806265 l 3.295217,5.2350045 1.276036,10.055265 c 0.701819,5.530395 1.249476,10.187097 1.217014,10.348226 -0.06792,0.337135 -0.741757,-4.330914 -1.949409,-13.504674 L 15.837786,12.708404 12.948601,8.1502566 C 11.359549,5.6432756 9.9708308,3.5921094 9.8625607,3.5921094 c -0.10827,0 -0.2488897,0.2771846 -0.3124885,0.6159658 C 9.4864735,4.5468564 8.0401803,12.433671 6.3360875,21.73433 L 3.2377366,38.644619 6.6378651,56.844383 c 2.4189443,12.94781 3.4610219,18.199763 3.6111449,18.199763 0.216669,0 0.336415,-0.180951 3.641445,-5.502628 l 1.938232,-3.120894 1.423289,-10.923127 c 0.782809,-6.00772 1.47089,-11.107917 1.52907,-11.333771 0.380066,-1.47545 0.06504,1.544403 -1.183829,11.348329 -0.967707,7.596722 -1.493728,11.227523 -1.675594,11.5656 -0.215088,0.399835 -3.756689,6.073909 -5.908125,9.465534 L 9.5314757,77.30307 Z"
       style="fill:#333333;stroke:#800000;stroke-width:0.01642576;stroke-miterlimit:4;stroke-dasharray:none" />
    <path
       inkscape:connector-curvature="0"
       id="path4925"
       d="M 77.758305,72.011807 74.517556,66.869895 73.0393,55.403906 c -0.813041,-6.306294 -1.442829,-11.501417 -1.399528,-11.544719 0.0433,-0.0433 0.108519,-0.04793 0.144929,-0.01028 0.03641,0.03764 0.70423,4.946884 1.484045,10.909433 0.779815,5.962549 1.456568,11.037298 1.503897,11.277219 0.07577,0.384085 5.086784,8.673824 5.482233,9.069274 0.09523,0.09523 0.215344,0.0037 0.316242,-0.241018 0.236424,-0.573382 6.753731,-35.68766 6.741795,-36.32379 -0.0055,-0.294775 -1.429225,-8.260167 -3.163766,-17.70087 C 81.700893,7.5138696 80.942779,3.6742382 80.760032,3.6742382 c -0.129472,0 -1.520361,2.026336 -3.090863,4.5029691 l -2.855459,4.5029687 -1.129942,8.473379 c -1.159448,8.69464 -1.75325,12.7025 -1.78372,12.0392 -0.02609,-0.567955 2.584694,-20.881499 2.712961,-21.108548 0.603181,-1.067697 6.37358,-10.1345384 6.449649,-10.1341214 0.05536,3.035e-4 1.647212,8.2779794 3.53745,18.3948354 l 3.436797,18.394284 -3.422391,19.096952 C 82.7322,68.33948 81.148683,76.982745 81.095589,77.043414 c -0.05309,0.06067 -1.554872,-2.203557 -3.337284,-5.031607 z"
       style="fill:#333333;stroke:#800000;stroke-width:0.01642576;stroke-miterlimit:4;stroke-dasharray:none" />
    <path
       inkscape:connector-curvature="0"
       id="path4927"
       d="m 81.738213,78.890074 c 0,-0.205635 0.14705,-0.248884 0.698094,-0.205322 0.658888,0.05209 0.695725,0.03213 0.655909,-0.355455 -0.0232,-0.225854 1.503632,-9.153549 3.392965,-19.839323 L 89.920332,39.061295 86.555677,20.628607 C 84.705117,10.49063 83.164397,1.8263407 83.131855,1.3746324 83.074994,0.58535009 83.054923,0.55540115 82.616806,0.60611758 c -0.58561,0.0677903 -1.535624,-0.10930342 -1.535624,-0.28625833 0,-0.0750588 0.540789,-0.14694034 1.201753,-0.15973679 l 1.201752,-0.0232662 3.537196,19.45637474 3.537196,19.456377 -3.538248,20.050488 -3.538247,20.050489 h -0.872186 c -0.686788,0 -0.872185,-0.05538 -0.872185,-0.260511 z"
       style="fill:#333333;stroke:#800000;stroke-width:0.01642576;stroke-miterlimit:4;stroke-dasharray:none" />
    <path
       inkscape:connector-curvature="0"
       id="path4929"
       d="m 81.907073,78.996957 c -0.207494,-0.13492 -0.20167,-0.172607 0.04107,-0.265753 0.155566,-0.0597 0.393721,-0.06599 0.529234,-0.01399 0.135512,0.052 0.246386,0.01859 0.246386,-0.07425 0,-0.09284 0.06881,-0.126272 0.152908,-0.0743 0.238198,0.147216 0.326658,-0.115337 0.40157,-1.191869 0.03813,-0.547906 0.104338,-1.056669 0.147136,-1.130586 0.08156,-0.140853 0.318662,-1.632361 0.517494,-3.255286 0.02214,-0.180684 0.09095,-0.483653 0.152918,-0.673267 0.09826,-0.300666 0.19268,-0.888067 0.340623,-2.119112 0.02171,-0.180683 0.09018,-0.483653 0.15215,-0.673267 0.06197,-0.189614 0.155076,-0.670067 0.206906,-1.067674 0.166487,-1.277178 0.181945,-1.373231 0.288167,-1.790596 0.09714,-0.381682 0.245199,-1.280426 0.338248,-2.05322 0.02175,-0.180683 0.08535,-0.476347 0.141331,-0.65703 0.05598,-0.180683 0.149417,-0.698094 0.207644,-1.149803 0.152604,-1.183866 0.169063,-1.279238 0.283467,-1.642575 0.05689,-0.180684 0.150296,-0.698095 0.207566,-1.149803 0.123818,-0.976598 0.173771,-1.291189 0.326024,-2.05322 0.128926,-0.645281 0.186144,-0.974919 0.313627,-1.806833 0.04845,-0.316196 0.128704,-0.759691 0.178334,-0.985545 0.08285,-0.377039 0.226078,-1.202124 0.313647,-1.806833 0.01962,-0.135513 0.08223,-0.394218 0.13912,-0.574902 0.05689,-0.180683 0.150296,-0.698094 0.207566,-1.149803 0.09758,-0.769686 0.163595,-1.173396 0.32229,-1.97109 0.03595,-0.180684 0.102731,-0.550263 0.148413,-0.821288 0.147927,-0.877653 0.280815,-1.635094 0.345814,-1.971091 0.06689,-0.34578 0.254522,-1.470537 0.315115,-1.888962 0.01962,-0.135512 0.08223,-0.394218 0.13912,-0.574901 0.05689,-0.180683 0.151079,-0.698095 0.209305,-1.149803 0.152605,-1.183867 0.169063,-1.279238 0.283467,-1.642575 0.399308,-1.268169 0.406951,-3.635656 0.01583,-4.903015 -0.05157,-0.167092 -0.118809,-0.462756 -0.149428,-0.65703 -0.07219,-0.45807 -0.239344,-1.413387 -0.32046,-1.831545 -0.03505,-0.180684 -0.108966,-0.587221 -0.164258,-0.903417 -0.05529,-0.316196 -0.129208,-0.722733 -0.164257,-0.903417 -0.03505,-0.180683 -0.108966,-0.58722 -0.164258,-0.903416 -0.05529,-0.316196 -0.129208,-0.722733 -0.164257,-0.903417 -0.03505,-0.180683 -0.108966,-0.58722 -0.164258,-0.903416 -0.05529,-0.316196 -0.129208,-0.722733 -0.164257,-0.903417 -0.03505,-0.180683 -0.108966,-0.587221 -0.164258,-0.903416 -0.05529,-0.316196 -0.129208,-0.722734 -0.164257,-0.903417 -0.03505,-0.180683 -0.108966,-0.587221 -0.164258,-0.903416 -0.05529,-0.316196 -0.129208,-0.722734 -0.164258,-0.903417 -0.03505,-0.180683 -0.108965,-0.587221 -0.164257,-0.903417 -0.05529,-0.316195 -0.129208,-0.722733 -0.164258,-0.903416 -0.03505,-0.180683 -0.102658,-0.550263 -0.15024,-0.821288 -0.04758,-0.271025 -0.127173,-0.677562 -0.176866,-0.903416 -0.04969,-0.225855 -0.123662,-0.632392 -0.164373,-0.903417 -0.04071,-0.271025 -0.114628,-0.677562 -0.164258,-0.903417 -0.04963,-0.225854 -0.12988,-0.669349 -0.178334,-0.985545 -0.04845,-0.316196 -0.116696,-0.722733 -0.151649,-0.903416 -0.03495,-0.180684 -0.108791,-0.587221 -0.164083,-0.903417 -0.05529,-0.316196 -0.129208,-0.722733 -0.164257,-0.903417 -0.03505,-0.180683 -0.108966,-0.58722 -0.164258,-0.903416 -0.102139,-0.584053 -0.182971,-1.02008 -0.312209,-1.684077 C 85.248541,13.367289 85.167259,12.83402 85.107429,12.385274 85.0476,11.936528 84.966411,11.517209 84.927008,11.453454 84.887606,11.3897 84.81369,10.983162 84.762751,10.550038 84.711812,10.116913 84.636502,9.7081202 84.595395,9.6416084 84.554289,9.5750966 84.478611,9.1291776 84.427223,8.6506774 84.375835,8.1721772 84.297358,7.7213009 84.252829,7.6487301 84.2083,7.5761595 84.139181,7.20658 84.099231,6.8274423 84.059282,6.4483049 83.985429,6.0272276 83.935114,5.8917152 83.884799,5.7562027 83.810883,5.3496652 83.770857,4.9882986 83.73083,4.626932 83.657485,4.2203945 83.607867,4.0848821 83.55825,3.9493696 83.482457,3.4689162 83.439438,3.0172079 83.396419,2.5654997 83.297484,2.1314762 83.219583,2.0527114 c -0.0779,-0.078765 -0.102485,-0.245241 -0.05463,-0.3699468 0.04785,-0.1247059 0.04477,-0.3950179 -0.0068,-0.6006933 -0.09354,-0.37267992 -0.369595,-0.46929966 -1.460955,-0.51133039 -0.469661,-0.0180877 -0.602249,-0.17816566 -0.246386,-0.29747027 0.112927,-0.0378593 0.608227,-0.0642464 1.100667,-0.0586381 0.886383,0.0100949 0.896639,0.0159513 1.024669,0.5850984 0.07113,0.31619576 0.172717,0.90509956 0.225751,1.30867476 0.05303,0.4035754 0.128664,0.7859364 0.168066,0.849691 0.0394,0.063755 0.113319,0.4702923 0.164258,0.9034166 0.05094,0.4331245 0.124855,0.839662 0.164257,0.9034166 0.0394,0.063755 0.113319,0.4702922 0.164258,0.9034165 0.05094,0.4331245 0.124855,0.839662 0.164257,0.9034166 0.0394,0.063755 0.113319,0.4702922 0.164258,0.9034165 0.05094,0.4331245 0.124855,0.839662 0.164258,0.9034166 0.0394,0.063755 0.113318,0.4702922 0.164257,0.9034165 0.05094,0.4331245 0.124855,0.8396624 0.164258,0.9034164 0.0394,0.06376 0.113318,0.470292 0.164257,0.903417 0.05094,0.433124 0.124855,0.839662 0.164258,0.903416 0.0394,0.06376 0.113318,0.470293 0.164257,0.903417 0.05094,0.433124 0.124855,0.839662 0.164258,0.903416 0.0394,0.06376 0.113318,0.470293 0.164257,0.903417 0.05094,0.433124 0.124855,0.839662 0.164258,0.903417 0.0394,0.06375 0.113318,0.470292 0.164258,0.903416 0.05094,0.433124 0.124855,0.839662 0.164257,0.903416 0.0394,0.06376 0.113319,0.470293 0.164258,0.903417 0.05094,0.433124 0.124855,0.839662 0.164257,0.903417 0.0394,0.06375 0.113319,0.470292 0.164258,0.903416 0.05094,0.433124 0.124855,0.839662 0.164257,0.903417 0.0394,0.06376 0.113319,0.470292 0.164258,0.903416 0.05094,0.433124 0.124855,0.839662 0.164257,0.903417 0.0394,0.06376 0.113319,0.470292 0.164258,0.903416 0.05094,0.433125 0.124855,0.839662 0.164258,0.903417 0.0394,0.06376 0.113318,0.470292 0.164257,0.903417 0.05094,0.433124 0.124855,0.839661 0.164258,0.903416 0.0394,0.06376 0.113318,0.470292 0.164257,0.903417 0.05094,0.433124 0.124855,0.839661 0.164258,0.903416 0.0394,0.06376 0.113318,0.470293 0.164257,0.903417 0.05094,0.433124 0.124855,0.839661 0.164258,0.903416 0.0394,0.06376 0.113318,0.470293 0.164257,0.903417 0.05094,0.433124 0.124855,0.839661 0.164258,0.903416 0.0394,0.06376 0.113318,0.470293 0.164258,0.903417 0.05094,0.433124 0.124855,0.839662 0.164257,0.903417 0.0394,0.06375 0.113319,0.470292 0.164258,0.903416 0.05094,0.433124 0.124855,0.839662 0.164257,0.903417 0.0394,0.06376 0.112256,0.461255 0.161896,0.883332 0.04964,0.422078 0.151703,0.929038 0.226807,1.126576 0.2044,0.537611 0.07121,3.259182 -0.201953,4.126733 -0.05689,0.180683 -0.151079,0.698094 -0.209306,1.149802 -0.152604,1.183867 -0.169063,1.279238 -0.283466,1.642576 -0.05689,0.180683 -0.15108,0.698095 -0.209306,1.149803 -0.152604,1.183867 -0.169063,1.279238 -0.283467,1.642575 -0.05689,0.180684 -0.151079,0.698095 -0.209306,1.149803 -0.152604,1.183867 -0.169063,1.279238 -0.283467,1.642576 -0.05689,0.180683 -0.151079,0.698095 -0.209306,1.149803 -0.152604,1.183866 -0.169063,1.279238 -0.283466,1.642575 -0.05689,0.180684 -0.15108,0.698095 -0.209306,1.149803 -0.152604,1.183867 -0.169063,1.279238 -0.283467,1.642576 -0.05689,0.180683 -0.151079,0.698094 -0.209306,1.149803 -0.152604,1.183866 -0.169063,1.279238 -0.283467,1.642575 -0.05689,0.180684 -0.151079,0.698095 -0.209306,1.149803 -0.152604,1.183867 -0.169063,1.279238 -0.283466,1.642576 -0.05689,0.180683 -0.15108,0.698094 -0.209306,1.149803 -0.152604,1.183866 -0.169063,1.279237 -0.283467,1.642575 -0.05689,0.180683 -0.151079,0.698095 -0.209306,1.149803 -0.152604,1.183867 -0.169063,1.279238 -0.283467,1.642576 -0.05689,0.180683 -0.151079,0.698094 -0.209306,1.149802 -0.152604,1.183867 -0.169063,1.279238 -0.283466,1.642576 -0.05689,0.180683 -0.15108,0.698095 -0.209306,1.149803 -0.152604,1.183867 -0.169063,1.279238 -0.283467,1.642576 -0.05689,0.180683 -0.151079,0.698094 -0.209306,1.149802 -0.152604,1.183867 -0.169063,1.279238 -0.283467,1.642576 -0.05689,0.180683 -0.150296,0.698095 -0.207566,1.149803 -0.05727,0.451708 -0.13464,0.969119 -0.171933,1.149803 -0.03729,0.180683 -0.124137,0.624178 -0.192988,0.985545 -0.119174,0.62549 -0.156631,0.659088 -0.780252,0.699887 -0.360289,0.02357 -0.763872,-0.02789 -0.896853,-0.114356 z"
       style="fill:#333333;stroke:#800000;stroke-width:0.01642576;stroke-miterlimit:4;stroke-dasharray:none" />
    <path
       inkscape:connector-curvature="0"
       id="path4931"
       d="m 82.159759,79.003118 c -0.197989,-0.07753 -0.24997,-0.166183 -0.138016,-0.235375 0.09878,-0.06105 0.29714,-0.06589 0.440806,-0.01076 0.143665,0.05513 0.261209,0.01841 0.261209,-0.08159 0,-0.100008 0.08874,-0.163352 0.197198,-0.140767 0.212867,0.04433 0.680161,-2.360435 0.558574,-2.874507 -0.03739,-0.158098 -0.0082,-0.287451 0.06477,-0.287451 0.111648,0 0.283314,-0.974678 0.419485,-2.381734 0.01749,-0.180684 0.07517,-0.439389 0.128183,-0.574902 0.183229,-0.46836 0.45388,-2.306297 0.361607,-2.455598 -0.05093,-0.0824 -0.02611,-0.190911 0.05514,-0.241131 0.08126,-0.05022 0.204932,-0.517302 0.274835,-1.037959 0.0699,-0.520658 0.157855,-1.1684 0.195451,-1.439425 0.03759,-0.271025 0.08644,-0.644336 0.108542,-0.829583 0.0221,-0.185244 0.08627,-0.411371 0.14259,-0.502503 0.05632,-0.09113 0.141761,-0.530893 0.189863,-0.97725 0.0481,-0.446357 0.161694,-1.116768 0.252425,-1.489803 0.09073,-0.373034 0.210353,-1.038277 0.265826,-1.478318 0.164768,-1.307032 0.18827,-1.44578 0.288547,-1.703489 0.05273,-0.135512 0.141917,-0.615966 0.198194,-1.067674 0.05628,-0.451708 0.121206,-0.96912 0.144286,-1.149803 0.02308,-0.180683 0.09266,-0.483653 0.154632,-0.673267 0.06197,-0.189614 0.155076,-0.670067 0.206906,-1.067674 0.166487,-1.277178 0.181945,-1.373231 0.288167,-1.790596 0.101341,-0.398189 0.26018,-1.373745 0.335653,-2.061515 0.02033,-0.185245 0.08304,-0.411371 0.139364,-0.502503 0.05632,-0.09113 0.150196,-0.567852 0.208607,-1.059379 0.05841,-0.491528 0.124372,-1.041518 0.146577,-1.222201 0.02221,-0.180684 0.09108,-0.483653 0.153044,-0.673267 0.09826,-0.300666 0.19268,-0.888067 0.340623,-2.119112 0.02171,-0.180683 0.09018,-0.483653 0.15215,-0.673267 0.06197,-0.189614 0.146523,-0.633109 0.1879,-0.985545 0.04138,-0.352436 0.149181,-0.946004 0.239565,-1.319039 0.09038,-0.373034 0.201152,-1.001319 0.246151,-1.396189 0.045,-0.394869 0.158297,-1.013607 0.251774,-1.374974 0.219362,-0.848019 0.224858,-3.509624 0.0078,-3.771179 -0.09185,-0.110676 -0.128124,-0.240111 -0.0806,-0.28763 0.04752,-0.04752 0.0082,-0.410301 -0.0874,-0.806175 -0.09559,-0.395875 -0.210542,-1.041601 -0.255446,-1.434947 -0.0449,-0.393344 -0.151446,-0.845601 -0.236761,-1.005012 -0.08531,-0.159412 -0.118195,-0.32676 -0.07307,-0.371887 0.04513,-0.04513 0.0038,-0.405946 -0.09175,-0.80182 -0.09559,-0.395875 -0.210542,-1.041601 -0.255446,-1.434947 -0.0449,-0.393345 -0.151446,-0.845602 -0.236761,-1.005012 -0.08531,-0.159412 -0.118196,-0.326761 -0.07307,-0.371887 0.04513,-0.04513 0.0031,-0.405946 -0.09344,-0.80182 -0.09652,-0.395876 -0.212482,-1.015437 -0.257695,-1.376804 -0.04521,-0.361366 -0.123371,-0.767904 -0.173686,-0.903416 -0.05031,-0.135513 -0.124231,-0.54205 -0.164257,-0.903417 -0.04003,-0.361366 -0.114369,-0.767904 -0.165204,-0.903416 -0.05084,-0.135513 -0.129116,-0.578261 -0.173956,-0.983885 -0.04484,-0.405624 -0.145953,-0.857879 -0.224696,-1.005013 -0.07874,-0.147132 -0.106248,-0.304435 -0.06112,-0.349562 0.04513,-0.04513 0.0031,-0.405946 -0.09344,-0.80182 -0.09652,-0.395875 -0.212483,-1.015437 -0.257695,-1.376803 -0.04521,-0.361367 -0.123371,-0.767904 -0.173686,-0.903417 -0.05031,-0.135512 -0.124231,-0.54205 -0.164258,-0.903416 -0.04003,-0.361367 -0.114368,-0.767904 -0.165204,-0.903417 -0.05083,-0.135512 -0.129115,-0.57826 -0.173955,-0.983885 -0.04484,-0.405624 -0.145954,-0.857879 -0.224697,-1.005012 -0.07874,-0.147133 -0.106248,-0.304436 -0.06112,-0.349562 0.04513,-0.04513 0.0036,-0.405946 -0.09225,-0.801821 -0.09586,-0.395875 -0.213653,-1.084973 -0.261756,-1.53133 -0.0481,-0.446356 -0.131242,-0.882401 -0.184756,-0.968988 -0.05351,-0.08659 -0.123506,-0.460545 -0.155539,-0.831018 C 84.88341,10.87617 84.812133,10.462182 84.75705,10.326669 84.701967,10.191157 84.628051,9.7846192 84.592793,9.4232526 84.557534,9.061886 84.483618,8.6553485 84.428535,8.5198361 84.373452,8.3843236 84.299536,7.9777861 84.264277,7.6164195 84.229019,7.2550529 84.155103,6.8485154 84.10002,6.7130029 84.044937,6.5774905 83.971021,6.170953 83.935762,5.8095864 83.900504,5.4482198 83.827578,5.0416823 83.773705,4.9061698 83.719832,4.7706573 83.644713,4.2935576 83.606773,3.8459482 83.568834,3.3983389 83.483987,2.9918014 83.418226,2.9425317 83.352464,2.893262 83.29338,2.6866396 83.286927,2.4833709 83.238146,0.94677808 83.242381,0.95802629 82.613805,0.69539081 82.282307,0.55688174 81.838811,0.47648747 81.62826,0.51673686 c -0.210551,0.0402494 -0.38282,0.009515 -0.38282,-0.0682989 0,-0.0778138 0.05544,-0.14412451 0.123193,-0.14735712 0.06776,-0.003233 0.544898,-0.0282114 1.060316,-0.0555085 1.046286,-0.0554125 1.108181,0.001956 1.218153,1.12906016 0.03526,0.3613666 0.109174,0.7679041 0.164257,0.9034165 0.05508,0.1355125 0.128999,0.54205 0.164258,0.9034166 0.03526,0.3613666 0.109174,0.7679041 0.164257,0.9034166 0.05508,0.1355124 0.128999,0.5420499 0.164258,0.9034165 0.03526,0.3613666 0.109174,0.7679041 0.164257,0.9034166 0.05508,0.1355124 0.129,0.5420499 0.164258,0.9034165 0.03526,0.3613666 0.109174,0.7679041 0.164258,0.9034166 0.05508,0.1355125 0.128999,0.5420499 0.164257,0.9034165 0.03526,0.3613667 0.109175,0.7679041 0.164258,0.9034166 0.05508,0.1355125 0.128999,0.5420495 0.164257,0.9034165 0.03526,0.361367 0.109175,0.767904 0.164258,0.903417 0.05508,0.135512 0.128999,0.542049 0.164257,0.903416 0.03526,0.361367 0.109175,0.767904 0.164258,0.903417 0.05508,0.135512 0.128999,0.54205 0.164257,0.903416 0.03526,0.361367 0.109175,0.767904 0.164258,0.903417 0.05508,0.135512 0.128999,0.54205 0.164258,0.903416 0.03526,0.361367 0.109174,0.767904 0.164257,0.903417 0.05508,0.135512 0.128999,0.54205 0.164258,0.903416 0.03526,0.361367 0.109174,0.767904 0.164257,0.903417 0.05508,0.135512 0.128999,0.54205 0.164258,0.903417 0.03526,0.361366 0.109174,0.767904 0.164257,0.903416 0.05508,0.135513 0.128999,0.54205 0.164258,0.903417 0.03526,0.361366 0.109174,0.767904 0.164257,0.903416 0.05508,0.135513 0.129,0.54205 0.164258,0.903417 0.03526,0.361366 0.109174,0.767904 0.164258,0.903416 0.05508,0.135513 0.128999,0.54205 0.164257,0.903417 0.03526,0.361366 0.109175,0.767904 0.164258,0.903416 0.05508,0.135513 0.128999,0.54205 0.164257,0.903417 0.03526,0.361367 0.109175,0.767904 0.164258,0.903417 0.05508,0.135512 0.128999,0.542049 0.164257,0.903416 0.03526,0.361367 0.109175,0.767904 0.164258,0.903417 0.05508,0.135512 0.128999,0.54205 0.164257,0.903416 0.03526,0.361367 0.109175,0.767904 0.164258,0.903417 0.05508,0.135512 0.128999,0.54205 0.164258,0.903416 0.03526,0.361367 0.109174,0.767904 0.164257,0.903417 0.05508,0.135512 0.128999,0.54205 0.164258,0.903416 0.03526,0.361367 0.109174,0.767905 0.164257,0.903417 0.05508,0.135512 0.128999,0.54205 0.164258,0.903417 0.03526,0.361366 0.109174,0.767904 0.164257,0.903416 0.05508,0.135513 0.128999,0.54205 0.164258,0.903417 0.03526,0.361366 0.110038,0.767904 0.166177,0.903416 0.13553,0.327154 0.14566,1.043029 0.01769,1.250089 -0.0879,0.142227 -0.175317,0.710046 -0.352507,2.289744 -0.02078,0.185244 -0.08386,0.411371 -0.140183,0.502503 -0.08797,0.142342 -0.17538,0.710008 -0.35259,2.289875 -0.02078,0.185245 -0.08386,0.411372 -0.140183,0.502503 -0.08797,0.142343 -0.17538,0.710009 -0.352589,2.289876 -0.02078,0.185244 -0.08386,0.411371 -0.140184,0.502503 -0.08797,0.142342 -0.17538,0.710008 -0.352589,2.289875 -0.02078,0.185245 -0.08386,0.411372 -0.140183,0.502503 -0.08797,0.142343 -0.17538,0.710009 -0.35259,2.289875 -0.02078,0.185245 -0.08386,0.411372 -0.140183,0.502504 -0.08797,0.142342 -0.17538,0.710008 -0.352589,2.289875 -0.02078,0.185245 -0.08386,0.411371 -0.140184,0.502503 -0.08797,0.142343 -0.17538,0.710008 -0.352589,2.289875 -0.02078,0.185245 -0.08386,0.411372 -0.140183,0.502504 -0.08797,0.142342 -0.17538,0.710008 -0.35259,2.289875 -0.02078,0.185245 -0.08386,0.411371 -0.140183,0.502503 -0.08797,0.142342 -0.17538,0.710008 -0.352589,2.289875 -0.02078,0.185245 -0.08386,0.411372 -0.140184,0.502504 -0.08797,0.142342 -0.17538,0.710008 -0.352589,2.289875 -0.02078,0.185244 -0.08386,0.411371 -0.140183,0.502503 -0.08797,0.142342 -0.17538,0.710008 -0.35259,2.289875 -0.02078,0.185245 -0.08386,0.411372 -0.140183,0.502503 -0.08797,0.142343 -0.17538,0.710009 -0.352589,2.289876 -0.02078,0.185244 -0.08386,0.411371 -0.140184,0.502503 -0.08797,0.142342 -0.17538,0.710008 -0.352589,2.289875 -0.02078,0.185245 -0.08386,0.411372 -0.140183,0.502503 -0.05632,0.09113 -0.150196,0.567852 -0.208608,1.059379 -0.235742,1.983747 -0.296071,2.129473 -0.875194,2.114072 -0.238774,-0.0064 -0.57706,-0.06751 -0.751747,-0.135921 z"
       style="fill:#333333;stroke:#800000;stroke-width:0.01642576;stroke-miterlimit:4;stroke-dasharray:none" />
  </g>
</svg>
